<svg width="186" height="187" viewBox="0 0 186 187" fill="none" xmlns="http://www.w3.org/2000/svg">
<rect width="186" height="187" rx="16" fill="#F4F5F8"/>
<path d="M61.9453 70.6875L68.9375 52.5625H75.2461L65.5 75.4922C65.1615 76.2734 64.7708 77.0221 64.3281 77.7383C63.8984 78.4414 63.3841 79.0729 62.7852 79.6328C62.1862 80.1797 61.4701 80.6159 60.6367 80.9414C59.8034 81.2539 58.8073 81.4102 57.6484 81.4102C57.362 81.4102 57.0104 81.4036 56.5938 81.3906C56.1771 81.3776 55.8451 81.3581 55.5977 81.332L55.5586 76.7617C55.7148 76.8008 55.9622 76.8268 56.3008 76.8398C56.6393 76.8398 56.8867 76.8398 57.043 76.8398C57.8112 76.8398 58.4167 76.7292 58.8594 76.5078C59.3021 76.2865 59.6536 75.974 59.9141 75.5703C60.1875 75.1536 60.4284 74.6654 60.6367 74.1055L61.9453 70.6875ZM57.3164 52.5625L63.8008 66.6445L65.6172 73.1094L61.2617 73.1875L51.0273 52.5625H57.3164ZM80.9688 52.5625H85.9297L93.2344 73.4414L100.539 52.5625H105.5L95.2266 81H91.2422L80.9688 52.5625ZM78.293 52.5625H83.2344L84.1328 72.9141V81H78.293V52.5625ZM103.234 52.5625H108.195V81H102.336V72.9141L103.234 52.5625ZM123.957 67.3672H119.543V64.2617H123.059C124.087 64.2617 124.921 64.1055 125.559 63.793C126.197 63.4674 126.665 63.0117 126.965 62.4258C127.264 61.8398 127.414 61.1497 127.414 60.3555C127.414 59.7044 127.245 59.1055 126.906 58.5586C126.581 58.0117 126.073 57.5755 125.383 57.25C124.693 56.9115 123.814 56.7422 122.746 56.7422C121.939 56.7422 121.203 56.8854 120.539 57.1719C119.875 57.4583 119.348 57.862 118.957 58.3828C118.566 58.8906 118.371 59.5091 118.371 60.2383H112.531C112.531 58.9883 112.798 57.8685 113.332 56.8789C113.879 55.8763 114.621 55.0299 115.559 54.3398C116.509 53.6367 117.603 53.1029 118.84 52.7383C120.077 52.3737 121.379 52.1914 122.746 52.1914C124.348 52.1914 125.793 52.3672 127.082 52.7188C128.371 53.0573 129.478 53.5651 130.402 54.2422C131.327 54.9193 132.036 55.7591 132.531 56.7617C133.026 57.7643 133.273 58.9297 133.273 60.2578C133.273 61.2344 133.052 62.1523 132.609 63.0117C132.167 63.8711 131.535 64.6263 130.715 65.2773C129.895 65.9284 128.911 66.4427 127.766 66.8203C126.62 67.1849 125.35 67.3672 123.957 67.3672ZM119.543 65.668H123.957C125.507 65.668 126.88 65.8307 128.078 66.1562C129.289 66.4818 130.311 66.957 131.145 67.582C131.991 68.207 132.629 68.9818 133.059 69.9062C133.501 70.8177 133.723 71.8659 133.723 73.0508C133.723 74.3789 133.449 75.5573 132.902 76.5859C132.368 77.6146 131.607 78.487 130.617 79.2031C129.641 79.9193 128.482 80.4596 127.141 80.8242C125.812 81.1888 124.348 81.3711 122.746 81.3711C121.47 81.3711 120.201 81.2148 118.938 80.9023C117.674 80.5768 116.529 80.082 115.5 79.418C114.471 78.7539 113.651 77.901 113.039 76.8594C112.427 75.8177 112.121 74.5677 112.121 73.1094H118C118 73.7995 118.202 74.431 118.605 75.0039C119.009 75.5638 119.569 76.013 120.285 76.3516C121.001 76.6771 121.822 76.8398 122.746 76.8398C123.827 76.8398 124.745 76.6706 125.5 76.332C126.268 75.9935 126.848 75.5312 127.238 74.9453C127.642 74.3464 127.844 73.6888 127.844 72.9727C127.844 72.2044 127.74 71.5534 127.531 71.0195C127.323 70.4857 127.017 70.0495 126.613 69.7109C126.21 69.3594 125.708 69.1055 125.109 68.9492C124.523 68.793 123.84 68.7148 123.059 68.7148H119.543V65.668Z" fill="#161616"/>
<path d="M61.166 102.906L63.2637 97.4688H65.1562L62.2324 104.348C62.1309 104.582 62.0137 104.807 61.8809 105.021C61.752 105.232 61.5977 105.422 61.418 105.59C61.2383 105.754 61.0234 105.885 60.7734 105.982C60.5234 106.076 60.2246 106.123 59.877 106.123C59.791 106.123 59.6855 106.121 59.5605 106.117C59.4355 106.113 59.3359 106.107 59.2617 106.1L59.25 104.729C59.2969 104.74 59.3711 104.748 59.4727 104.752C59.5742 104.752 59.6484 104.752 59.6953 104.752C59.9258 104.752 60.1074 104.719 60.2402 104.652C60.373 104.586 60.4785 104.492 60.5566 104.371C60.6387 104.246 60.7109 104.1 60.7734 103.932L61.166 102.906ZM59.7773 97.4688L61.7227 101.693L62.2676 103.633L60.9609 103.656L57.8906 97.4688H59.7773ZM67.1367 100.879V108.438H65.4492V99.6602H67.0137L67.1367 100.879ZM71.1504 102.76V102.883C71.1504 103.344 71.0957 103.771 70.9863 104.166C70.8809 104.561 70.7246 104.904 70.5176 105.197C70.3105 105.486 70.0527 105.713 69.7441 105.877C69.4395 106.037 69.0879 106.117 68.6895 106.117C68.3027 106.117 67.9668 106.039 67.6816 105.883C67.3965 105.727 67.1562 105.508 66.9609 105.227C66.7695 104.941 66.6152 104.611 66.498 104.236C66.3809 103.861 66.291 103.459 66.2285 103.029V102.707C66.291 102.246 66.3809 101.824 66.498 101.441C66.6152 101.055 66.7695 100.721 66.9609 100.439C67.1562 100.154 67.3945 99.9336 67.6758 99.7773C67.9609 99.6211 68.2949 99.543 68.6777 99.543C69.0801 99.543 69.4336 99.6191 69.7383 99.7715C70.0469 99.9238 70.3047 100.143 70.5117 100.428C70.7227 100.713 70.8809 101.053 70.9863 101.447C71.0957 101.842 71.1504 102.279 71.1504 102.76ZM69.457 102.883V102.76C69.457 102.49 69.4336 102.242 69.3867 102.016C69.3438 101.785 69.2734 101.584 69.1758 101.412C69.082 101.24 68.957 101.107 68.8008 101.014C68.6484 100.916 68.4629 100.867 68.2441 100.867C68.0137 100.867 67.8164 100.904 67.6523 100.979C67.4922 101.053 67.3613 101.16 67.2598 101.301C67.1582 101.441 67.082 101.609 67.0312 101.805C66.9805 102 66.9492 102.221 66.9375 102.467V103.281C66.957 103.57 67.0117 103.83 67.1016 104.061C67.1914 104.287 67.3301 104.467 67.5176 104.6C67.7051 104.732 67.9512 104.799 68.2559 104.799C68.4785 104.799 68.666 104.75 68.8184 104.652C68.9707 104.551 69.0938 104.412 69.1875 104.236C69.2852 104.061 69.3535 103.857 69.3926 103.627C69.4355 103.396 69.457 103.148 69.457 102.883ZM76.0254 102.115V103.439H72.6035V102.115H76.0254ZM74.0273 99.6602V106H72.334V99.6602H74.0273ZM74.8828 102.895V102.771C74.8828 102.307 74.9492 101.879 75.082 101.488C75.2148 101.094 75.4082 100.752 75.6621 100.463C75.9199 100.174 76.2344 99.9492 76.6055 99.7891C76.9766 99.625 77.4004 99.543 77.877 99.543C78.3613 99.543 78.7891 99.625 79.1602 99.7891C79.5352 99.9492 79.8516 100.174 80.1094 100.463C80.3672 100.752 80.5605 101.094 80.6895 101.488C80.8223 101.879 80.8887 102.307 80.8887 102.771V102.895C80.8887 103.355 80.8223 103.783 80.6895 104.178C80.5605 104.568 80.3672 104.91 80.1094 105.203C79.8555 105.492 79.541 105.717 79.166 105.877C78.7949 106.037 78.3691 106.117 77.8887 106.117C77.4082 106.117 76.9824 106.037 76.6113 105.877C76.2402 105.717 75.9258 105.492 75.668 105.203C75.4102 104.91 75.2148 104.568 75.082 104.178C74.9492 103.783 74.8828 103.355 74.8828 102.895ZM76.5703 102.771V102.895C76.5703 103.16 76.5938 103.408 76.6406 103.639C76.6914 103.869 76.7676 104.072 76.8691 104.248C76.9746 104.42 77.1113 104.555 77.2793 104.652C77.4473 104.75 77.6504 104.799 77.8887 104.799C78.127 104.799 78.3281 104.75 78.4922 104.652C78.6602 104.555 78.7949 104.42 78.8965 104.248C79.002 104.072 79.0781 103.869 79.125 103.639C79.1758 103.408 79.2012 103.16 79.2012 102.895V102.771C79.2012 102.514 79.1758 102.271 79.125 102.045C79.0781 101.814 79.002 101.611 78.8965 101.436C78.7949 101.256 78.6602 101.115 78.4922 101.014C78.3242 100.912 78.1191 100.861 77.877 100.861C77.6426 100.861 77.4414 100.912 77.2734 101.014C77.1094 101.115 76.9746 101.256 76.8691 101.436C76.7676 101.611 76.6914 101.814 76.6406 102.045C76.5938 102.271 76.5703 102.514 76.5703 102.771ZM86.2031 99.6602V100.984H83.1328V99.6602H86.2031ZM83.6191 99.6602V106H81.9316V99.6602H83.6191ZM87.4336 99.6602V106H85.7402V99.6602H87.4336ZM90.416 103.645L92.543 99.6602H94.2305V106H92.543V102.01L90.416 106H88.7285V99.6602H90.416V103.645ZM99.873 102.221V103.533H96.6504V102.221H99.873ZM97.2129 99.6602V106H95.5254V99.6602H97.2129ZM101.016 99.6602V106H99.3223V99.6602H101.016ZM104.947 104.799C105.154 104.799 105.338 104.76 105.498 104.682C105.658 104.6 105.783 104.486 105.873 104.342C105.967 104.193 106.016 104.02 106.02 103.82H107.607C107.604 104.266 107.484 104.662 107.25 105.01C107.016 105.354 106.701 105.625 106.307 105.824C105.912 106.02 105.471 106.117 104.982 106.117C104.49 106.117 104.061 106.035 103.693 105.871C103.33 105.707 103.027 105.48 102.785 105.191C102.543 104.898 102.361 104.559 102.24 104.172C102.119 103.781 102.059 103.363 102.059 102.918V102.748C102.059 102.299 102.119 101.881 102.24 101.494C102.361 101.104 102.543 100.764 102.785 100.475C103.027 100.182 103.33 99.9531 103.693 99.7891C104.057 99.625 104.482 99.543 104.971 99.543C105.49 99.543 105.945 99.6426 106.336 99.8418C106.73 100.041 107.039 100.326 107.262 100.697C107.488 101.064 107.604 101.5 107.607 102.004H106.02C106.016 101.793 105.971 101.602 105.885 101.43C105.803 101.258 105.682 101.121 105.521 101.02C105.365 100.914 105.172 100.861 104.941 100.861C104.695 100.861 104.494 100.914 104.338 101.02C104.182 101.121 104.061 101.262 103.975 101.441C103.889 101.617 103.828 101.818 103.793 102.045C103.762 102.268 103.746 102.502 103.746 102.748V102.918C103.746 103.164 103.762 103.4 103.793 103.627C103.824 103.854 103.883 104.055 103.969 104.23C104.059 104.406 104.182 104.545 104.338 104.646C104.494 104.748 104.697 104.799 104.947 104.799ZM110.385 99.6602V106H108.697V99.6602H110.385ZM114.504 99.6602L111.773 103.627H110.086L109.881 102.068H111L112.365 99.6602H114.504ZM112.441 106L110.883 103.322L112.354 102.508L114.703 106H112.441ZM117.018 103.645L119.145 99.6602H120.832V106H119.145V102.01L117.018 106H115.33V99.6602H117.018V103.645ZM123.814 103.645L125.941 99.6602H127.629V106H125.941V102.01L123.814 106H122.127V99.6602H123.814V103.645ZM125.748 97.1113H126.949C126.949 97.4473 126.865 97.7461 126.697 98.0078C126.533 98.2656 126.299 98.4688 125.994 98.6172C125.689 98.7617 125.33 98.834 124.916 98.834C124.287 98.834 123.789 98.6738 123.422 98.3535C123.059 98.0332 122.877 97.6191 122.877 97.1113H124.072C124.072 97.3145 124.135 97.4961 124.26 97.6562C124.389 97.8164 124.607 97.8965 124.916 97.8965C125.221 97.8965 125.436 97.8164 125.561 97.6562C125.686 97.4961 125.748 97.3145 125.748 97.1113ZM33.6211 118.061L35.2852 113.66H36.6621L34.1895 120H33.0527L30.5918 113.66H31.9688L33.6211 118.061ZM31.5645 113.66V120H29.877V113.66H31.5645ZM35.7188 120V113.66H37.4062V120H35.7188ZM42.3047 118.57V115.746C42.3047 115.543 42.2715 115.369 42.2051 115.225C42.1387 115.076 42.0352 114.961 41.8945 114.879C41.7578 114.797 41.5801 114.756 41.3613 114.756C41.1738 114.756 41.0117 114.789 40.875 114.855C40.7383 114.918 40.6328 115.01 40.5586 115.131C40.4844 115.248 40.4473 115.387 40.4473 115.547H38.7598C38.7598 115.277 38.8223 115.021 38.9473 114.779C39.0723 114.537 39.2539 114.324 39.4922 114.141C39.7305 113.953 40.0137 113.807 40.3418 113.701C40.6738 113.596 41.0449 113.543 41.4551 113.543C41.9473 113.543 42.3848 113.625 42.7676 113.789C43.1504 113.953 43.4512 114.199 43.6699 114.527C43.8926 114.855 44.0039 115.266 44.0039 115.758V118.471C44.0039 118.818 44.0254 119.104 44.0684 119.326C44.1113 119.545 44.1738 119.736 44.2559 119.9V120H42.5508C42.4688 119.828 42.4062 119.613 42.3633 119.355C42.3242 119.094 42.3047 118.832 42.3047 118.57ZM42.5273 116.139L42.5391 117.094H41.5957C41.373 117.094 41.1797 117.119 41.0156 117.17C40.8516 117.221 40.7168 117.293 40.6113 117.387C40.5059 117.477 40.4277 117.582 40.377 117.703C40.3301 117.824 40.3066 117.957 40.3066 118.102C40.3066 118.246 40.3398 118.377 40.4062 118.494C40.4727 118.607 40.5684 118.697 40.6934 118.764C40.8184 118.826 40.9648 118.857 41.1328 118.857C41.3867 118.857 41.6074 118.807 41.7949 118.705C41.9824 118.604 42.127 118.479 42.2285 118.33C42.334 118.182 42.3887 118.041 42.3926 117.908L42.8379 118.623C42.7754 118.783 42.6895 118.949 42.5801 119.121C42.4746 119.293 42.3398 119.455 42.1758 119.607C42.0117 119.756 41.8145 119.879 41.584 119.977C41.3535 120.07 41.0801 120.117 40.7637 120.117C40.3613 120.117 39.9961 120.037 39.668 119.877C39.3438 119.713 39.0859 119.488 38.8945 119.203C38.707 118.914 38.6133 118.586 38.6133 118.219C38.6133 117.887 38.6758 117.592 38.8008 117.334C38.9258 117.076 39.1094 116.859 39.3516 116.684C39.5977 116.504 39.9043 116.369 40.2715 116.279C40.6387 116.186 41.0645 116.139 41.5488 116.139H42.5273ZM45.2988 113.66H46.9863V118.682H48.7383V113.66H50.4375V118.682H52.1836V113.66H53.8711V120H45.2988V113.66ZM56.9121 117.645L59.0391 113.66H60.7266V120H59.0391V116.01L56.9121 120H55.2246V113.66H56.9121V117.645ZM66.3691 116.221V117.533H63.1465V116.221H66.3691ZM63.709 113.66V120H62.0215V113.66H63.709ZM67.5117 113.66V120H65.8184V113.66H67.5117ZM68.5547 116.895V116.771C68.5547 116.307 68.6211 115.879 68.7539 115.488C68.8867 115.094 69.0801 114.752 69.334 114.463C69.5879 114.174 69.9004 113.949 70.2715 113.789C70.6426 113.625 71.0684 113.543 71.5488 113.543C72.0293 113.543 72.457 113.625 72.832 113.789C73.207 113.949 73.5215 114.174 73.7754 114.463C74.0332 114.752 74.2285 115.094 74.3613 115.488C74.4941 115.879 74.5605 116.307 74.5605 116.771V116.895C74.5605 117.355 74.4941 117.783 74.3613 118.178C74.2285 118.568 74.0332 118.91 73.7754 119.203C73.5215 119.492 73.209 119.717 72.8379 119.877C72.4668 120.037 72.041 120.117 71.5605 120.117C71.0801 120.117 70.6523 120.037 70.2773 119.877C69.9062 119.717 69.5918 119.492 69.334 119.203C69.0801 118.91 68.8867 118.568 68.7539 118.178C68.6211 117.783 68.5547 117.355 68.5547 116.895ZM70.2422 116.771V116.895C70.2422 117.16 70.2656 117.408 70.3125 117.639C70.3594 117.869 70.4336 118.072 70.5352 118.248C70.6406 118.42 70.7773 118.555 70.9453 118.652C71.1133 118.75 71.3184 118.799 71.5605 118.799C71.7949 118.799 71.9961 118.75 72.1641 118.652C72.332 118.555 72.4668 118.42 72.5684 118.248C72.6699 118.072 72.7441 117.869 72.791 117.639C72.8418 117.408 72.8672 117.16 72.8672 116.895V116.771C72.8672 116.514 72.8418 116.271 72.791 116.045C72.7441 115.814 72.668 115.611 72.5625 115.436C72.4609 115.256 72.3262 115.115 72.1582 115.014C71.9902 114.912 71.7871 114.861 71.5488 114.861C71.3105 114.861 71.1074 114.912 70.9395 115.014C70.7754 115.115 70.6406 115.256 70.5352 115.436C70.4336 115.611 70.3594 115.814 70.3125 116.045C70.2656 116.271 70.2422 116.514 70.2422 116.771ZM78.2168 118.799C78.4238 118.799 78.6074 118.76 78.7676 118.682C78.9277 118.6 79.0527 118.486 79.1426 118.342C79.2363 118.193 79.2852 118.02 79.2891 117.82H80.877C80.873 118.266 80.7539 118.662 80.5195 119.01C80.2852 119.354 79.9707 119.625 79.5762 119.824C79.1816 120.02 78.7402 120.117 78.252 120.117C77.7598 120.117 77.3301 120.035 76.9629 119.871C76.5996 119.707 76.2969 119.48 76.0547 119.191C75.8125 118.898 75.6309 118.559 75.5098 118.172C75.3887 117.781 75.3281 117.363 75.3281 116.918V116.748C75.3281 116.299 75.3887 115.881 75.5098 115.494C75.6309 115.104 75.8125 114.764 76.0547 114.475C76.2969 114.182 76.5996 113.953 76.9629 113.789C77.3262 113.625 77.752 113.543 78.2402 113.543C78.7598 113.543 79.2148 113.643 79.6055 113.842C80 114.041 80.3086 114.326 80.5312 114.697C80.7578 115.064 80.873 115.5 80.877 116.004H79.2891C79.2852 115.793 79.2402 115.602 79.1543 115.43C79.0723 115.258 78.9512 115.121 78.791 115.02C78.6348 114.914 78.4414 114.861 78.2109 114.861C77.9648 114.861 77.7637 114.914 77.6074 115.02C77.4512 115.121 77.3301 115.262 77.2441 115.441C77.1582 115.617 77.0977 115.818 77.0625 116.045C77.0312 116.268 77.0156 116.502 77.0156 116.748V116.918C77.0156 117.164 77.0312 117.4 77.0625 117.627C77.0938 117.854 77.1523 118.055 77.2383 118.23C77.3281 118.406 77.4512 118.545 77.6074 118.646C77.7637 118.748 77.9668 118.799 78.2168 118.799ZM85.084 113.66V120H83.3906V113.66H85.084ZM87.123 113.66V114.967H81.3809V113.66H87.123ZM89.6719 114.879V122.438H87.9844V113.66H89.5488L89.6719 114.879ZM93.6855 116.76V116.883C93.6855 117.344 93.6309 117.771 93.5215 118.166C93.416 118.561 93.2598 118.904 93.0527 119.197C92.8457 119.486 92.5879 119.713 92.2793 119.877C91.9746 120.037 91.623 120.117 91.2246 120.117C90.8379 120.117 90.502 120.039 90.2168 119.883C89.9316 119.727 89.6914 119.508 89.4961 119.227C89.3047 118.941 89.1504 118.611 89.0332 118.236C88.916 117.861 88.8262 117.459 88.7637 117.029V116.707C88.8262 116.246 88.916 115.824 89.0332 115.441C89.1504 115.055 89.3047 114.721 89.4961 114.439C89.6914 114.154 89.9297 113.934 90.2109 113.777C90.4961 113.621 90.8301 113.543 91.2129 113.543C91.6152 113.543 91.9688 113.619 92.2734 113.771C92.582 113.924 92.8398 114.143 93.0469 114.428C93.2578 114.713 93.416 115.053 93.5215 115.447C93.6309 115.842 93.6855 116.279 93.6855 116.76ZM91.9922 116.883V116.76C91.9922 116.49 91.9688 116.242 91.9219 116.016C91.8789 115.785 91.8086 115.584 91.7109 115.412C91.6172 115.24 91.4922 115.107 91.3359 115.014C91.1836 114.916 90.998 114.867 90.7793 114.867C90.5488 114.867 90.3516 114.904 90.1875 114.979C90.0273 115.053 89.8965 115.16 89.7949 115.301C89.6934 115.441 89.6172 115.609 89.5664 115.805C89.5156 116 89.4844 116.221 89.4727 116.467V117.281C89.4922 117.57 89.5469 117.83 89.6367 118.061C89.7266 118.287 89.8652 118.467 90.0527 118.6C90.2402 118.732 90.4863 118.799 90.791 118.799C91.0137 118.799 91.2012 118.75 91.3535 118.652C91.5059 118.551 91.6289 118.412 91.7227 118.236C91.8203 118.061 91.8887 117.857 91.9277 117.627C91.9707 117.396 91.9922 117.148 91.9922 116.883ZM94.4648 116.895V116.771C94.4648 116.307 94.5312 115.879 94.6641 115.488C94.7969 115.094 94.9902 114.752 95.2441 114.463C95.498 114.174 95.8105 113.949 96.1816 113.789C96.5527 113.625 96.9785 113.543 97.459 113.543C97.9395 113.543 98.3672 113.625 98.7422 113.789C99.1172 113.949 99.4316 114.174 99.6855 114.463C99.9434 114.752 100.139 115.094 100.271 115.488C100.404 115.879 100.471 116.307 100.471 116.771V116.895C100.471 117.355 100.404 117.783 100.271 118.178C100.139 118.568 99.9434 118.91 99.6855 119.203C99.4316 119.492 99.1191 119.717 98.748 119.877C98.377 120.037 97.9512 120.117 97.4707 120.117C96.9902 120.117 96.5625 120.037 96.1875 119.877C95.8164 119.717 95.502 119.492 95.2441 119.203C94.9902 118.91 94.7969 118.568 94.6641 118.178C94.5312 117.783 94.4648 117.355 94.4648 116.895ZM96.1523 116.771V116.895C96.1523 117.16 96.1758 117.408 96.2227 117.639C96.2695 117.869 96.3438 118.072 96.4453 118.248C96.5508 118.42 96.6875 118.555 96.8555 118.652C97.0234 118.75 97.2285 118.799 97.4707 118.799C97.7051 118.799 97.9062 118.75 98.0742 118.652C98.2422 118.555 98.377 118.42 98.4785 118.248C98.5801 118.072 98.6543 117.869 98.7012 117.639C98.752 117.408 98.7773 117.16 98.7773 116.895V116.771C98.7773 116.514 98.752 116.271 98.7012 116.045C98.6543 115.814 98.5781 115.611 98.4727 115.436C98.3711 115.256 98.2363 115.115 98.0684 115.014C97.9004 114.912 97.6973 114.861 97.459 114.861C97.2207 114.861 97.0176 114.912 96.8496 115.014C96.6855 115.115 96.5508 115.256 96.4453 115.436C96.3438 115.611 96.2695 115.814 96.2227 116.045C96.1758 116.271 96.1523 116.514 96.1523 116.771ZM103.189 117.645L105.316 113.66H107.004V120H105.316V116.01L103.189 120H101.502V113.66H103.189V117.645ZM111.533 113.66V120H109.84V113.66H111.533ZM113.572 113.66V114.967H107.83V113.66H113.572ZM116.941 120.117C116.449 120.117 116.008 120.039 115.617 119.883C115.227 119.723 114.895 119.502 114.621 119.221C114.352 118.939 114.145 118.613 114 118.242C113.855 117.867 113.783 117.469 113.783 117.047V116.812C113.783 116.332 113.852 115.893 113.988 115.494C114.125 115.096 114.32 114.75 114.574 114.457C114.832 114.164 115.145 113.939 115.512 113.783C115.879 113.623 116.293 113.543 116.754 113.543C117.203 113.543 117.602 113.617 117.949 113.766C118.297 113.914 118.588 114.125 118.822 114.398C119.061 114.672 119.24 115 119.361 115.383C119.482 115.762 119.543 116.184 119.543 116.648V117.352H114.504V116.227H117.885V116.098C117.885 115.863 117.842 115.654 117.756 115.471C117.674 115.283 117.549 115.135 117.381 115.025C117.213 114.916 116.998 114.861 116.736 114.861C116.514 114.861 116.322 114.91 116.162 115.008C116.002 115.105 115.871 115.242 115.77 115.418C115.672 115.594 115.598 115.801 115.547 116.039C115.5 116.273 115.477 116.531 115.477 116.812V117.047C115.477 117.301 115.512 117.535 115.582 117.75C115.656 117.965 115.76 118.15 115.893 118.307C116.029 118.463 116.193 118.584 116.385 118.67C116.58 118.756 116.801 118.799 117.047 118.799C117.352 118.799 117.635 118.74 117.896 118.623C118.162 118.502 118.391 118.32 118.582 118.078L119.402 118.969C119.27 119.16 119.088 119.344 118.857 119.52C118.631 119.695 118.357 119.84 118.037 119.953C117.717 120.062 117.352 120.117 116.941 120.117ZM124.77 113.66V114.984H121.652V113.66H124.77ZM126.006 113.66V120H124.318V113.66H126.006ZM121.23 113.66H122.889L122.719 116.859C122.695 117.316 122.646 117.719 122.572 118.066C122.498 118.414 122.398 118.711 122.273 118.957C122.152 119.203 122.006 119.404 121.834 119.561C121.666 119.713 121.469 119.824 121.242 119.895C121.02 119.965 120.773 120 120.504 120H119.988L119.971 118.67L120.188 118.646C120.312 118.635 120.422 118.6 120.516 118.541C120.613 118.479 120.695 118.391 120.762 118.277C120.832 118.16 120.891 118.014 120.938 117.838C120.984 117.658 121.021 117.447 121.049 117.205C121.08 116.963 121.102 116.684 121.113 116.367L121.23 113.66ZM128.479 115.541H130.318C130.896 115.541 131.389 115.637 131.795 115.828C132.205 116.016 132.518 116.277 132.732 116.613C132.951 116.949 133.061 117.338 133.061 117.779C133.061 118.1 132.998 118.396 132.873 118.67C132.752 118.939 132.574 119.174 132.34 119.373C132.105 119.572 131.818 119.727 131.479 119.836C131.139 119.945 130.752 120 130.318 120H127.424V113.66H129.117V118.688H130.318C130.572 118.688 130.775 118.646 130.928 118.564C131.084 118.479 131.197 118.367 131.268 118.23C131.342 118.094 131.379 117.945 131.379 117.785C131.379 117.617 131.342 117.465 131.268 117.328C131.197 117.188 131.084 117.074 130.928 116.988C130.775 116.902 130.572 116.859 130.318 116.859H128.479V115.541ZM138.357 116.221V117.533H135.135V116.221H138.357ZM135.697 113.66V120H134.01V113.66H135.697ZM139.5 113.66V120H137.807V113.66H139.5ZM141.979 115.541H143.818C144.396 115.541 144.889 115.637 145.295 115.828C145.705 116.016 146.018 116.277 146.232 116.613C146.451 116.949 146.561 117.338 146.561 117.779C146.561 118.1 146.498 118.396 146.373 118.67C146.252 118.939 146.074 119.174 145.84 119.373C145.605 119.572 145.318 119.727 144.979 119.836C144.639 119.945 144.252 120 143.818 120H140.924V113.66H142.617V118.688H143.818C144.072 118.688 144.275 118.646 144.428 118.564C144.584 118.479 144.697 118.367 144.768 118.23C144.842 118.094 144.879 117.945 144.879 117.785C144.879 117.617 144.842 117.465 144.768 117.328C144.697 117.188 144.584 117.074 144.428 116.988C144.275 116.902 144.072 116.859 143.818 116.859H141.979V115.541ZM149.268 113.66V120H147.58V113.66H149.268ZM152.432 117.645L154.559 113.66H156.246V120H154.559V116.01L152.432 120H150.744V113.66H152.432V117.645ZM154.365 111.111H155.566C155.566 111.447 155.482 111.746 155.314 112.008C155.15 112.266 154.916 112.469 154.611 112.617C154.307 112.762 153.947 112.834 153.533 112.834C152.904 112.834 152.406 112.674 152.039 112.354C151.676 112.033 151.494 111.619 151.494 111.111H152.689C152.689 111.314 152.752 111.496 152.877 111.656C153.006 111.816 153.225 111.896 153.533 111.896C153.838 111.896 154.053 111.816 154.178 111.656C154.303 111.496 154.365 111.314 154.365 111.111ZM79.8281 130.977H78.5742V130.221H79.4707C79.6816 130.221 79.8496 130.191 79.9746 130.133C80.1035 130.074 80.1953 129.992 80.25 129.887C80.3086 129.777 80.3379 129.654 80.3379 129.518C80.3379 129.396 80.3125 129.281 80.2617 129.172C80.2148 129.059 80.1289 128.967 80.0039 128.896C79.8828 128.822 79.7109 128.785 79.4883 128.785C79.3047 128.785 79.1406 128.812 78.9961 128.867C78.8555 128.922 78.7441 129.002 78.6621 129.107C78.584 129.209 78.5449 129.332 78.5449 129.477H76.8516C76.8516 129.074 76.9668 128.73 77.1973 128.445C77.4277 128.156 77.7363 127.936 78.123 127.783C78.5098 127.627 78.9336 127.549 79.3945 127.549C79.7969 127.549 80.1602 127.59 80.4844 127.672C80.8086 127.75 81.0859 127.867 81.3164 128.023C81.5469 128.18 81.7227 128.373 81.8438 128.604C81.9688 128.83 82.0312 129.094 82.0312 129.395C82.0312 129.609 81.9805 129.812 81.8789 130.004C81.7773 130.195 81.6309 130.365 81.4395 130.514C81.248 130.658 81.0156 130.771 80.7422 130.854C80.4727 130.936 80.168 130.977 79.8281 130.977ZM78.5742 130.555H79.8281C80.207 130.555 80.5391 130.592 80.8242 130.666C81.1133 130.736 81.3555 130.842 81.5508 130.982C81.7461 131.123 81.8926 131.297 81.9902 131.504C82.0918 131.707 82.1426 131.941 82.1426 132.207C82.1426 132.508 82.0762 132.777 81.9434 133.016C81.8105 133.25 81.6211 133.449 81.375 133.613C81.1289 133.777 80.8379 133.902 80.502 133.988C80.166 134.074 79.7969 134.117 79.3945 134.117C78.9648 134.117 78.5469 134.047 78.1406 133.906C77.7344 133.766 77.4004 133.549 77.1387 133.256C76.8809 132.963 76.752 132.586 76.752 132.125H78.4453C78.4453 132.258 78.4844 132.383 78.5625 132.5C78.6406 132.617 78.7578 132.711 78.9141 132.781C79.0703 132.848 79.2637 132.881 79.4941 132.881C79.7246 132.881 79.9102 132.844 80.0508 132.77C80.1914 132.695 80.293 132.598 80.3555 132.477C80.4219 132.352 80.4551 132.223 80.4551 132.09C80.4551 131.902 80.418 131.75 80.3438 131.633C80.2734 131.516 80.1641 131.43 80.0156 131.375C79.8711 131.32 79.6895 131.293 79.4707 131.293H78.5742V130.555ZM86.6016 132.57V129.746C86.6016 129.543 86.5684 129.369 86.502 129.225C86.4355 129.076 86.332 128.961 86.1914 128.879C86.0547 128.797 85.877 128.756 85.6582 128.756C85.4707 128.756 85.3086 128.789 85.1719 128.855C85.0352 128.918 84.9297 129.01 84.8555 129.131C84.7812 129.248 84.7441 129.387 84.7441 129.547H83.0566C83.0566 129.277 83.1191 129.021 83.2441 128.779C83.3691 128.537 83.5508 128.324 83.7891 128.141C84.0273 127.953 84.3105 127.807 84.6387 127.701C84.9707 127.596 85.3418 127.543 85.752 127.543C86.2441 127.543 86.6816 127.625 87.0645 127.789C87.4473 127.953 87.748 128.199 87.9668 128.527C88.1895 128.855 88.3008 129.266 88.3008 129.758V132.471C88.3008 132.818 88.3223 133.104 88.3652 133.326C88.4082 133.545 88.4707 133.736 88.5527 133.9V134H86.8477C86.7656 133.828 86.7031 133.613 86.6602 133.355C86.6211 133.094 86.6016 132.832 86.6016 132.57ZM86.8242 130.139L86.8359 131.094H85.8926C85.6699 131.094 85.4766 131.119 85.3125 131.17C85.1484 131.221 85.0137 131.293 84.9082 131.387C84.8027 131.477 84.7246 131.582 84.6738 131.703C84.627 131.824 84.6035 131.957 84.6035 132.102C84.6035 132.246 84.6367 132.377 84.7031 132.494C84.7695 132.607 84.8652 132.697 84.9902 132.764C85.1152 132.826 85.2617 132.857 85.4297 132.857C85.6836 132.857 85.9043 132.807 86.0918 132.705C86.2793 132.604 86.4238 132.479 86.5254 132.33C86.6309 132.182 86.6855 132.041 86.6895 131.908L87.1348 132.623C87.0723 132.783 86.9863 132.949 86.877 133.121C86.7715 133.293 86.6367 133.455 86.4727 133.607C86.3086 133.756 86.1113 133.879 85.8809 133.977C85.6504 134.07 85.377 134.117 85.0605 134.117C84.6582 134.117 84.293 134.037 83.9648 133.877C83.6406 133.713 83.3828 133.488 83.1914 133.203C83.0039 132.914 82.9102 132.586 82.9102 132.219C82.9102 131.887 82.9727 131.592 83.0977 131.334C83.2227 131.076 83.4062 130.859 83.6484 130.684C83.8945 130.504 84.2012 130.369 84.5684 130.279C84.9355 130.186 85.3613 130.139 85.8457 130.139H86.8242ZM92.7598 131.352H90.7734L90.7617 130.244H92.4023C92.6211 130.244 92.7988 130.223 92.9355 130.18C93.0723 130.133 93.1719 130.064 93.2344 129.975C93.3008 129.881 93.334 129.768 93.334 129.635C93.334 129.518 93.3125 129.418 93.2695 129.336C93.2305 129.25 93.1699 129.18 93.0879 129.125C93.0059 129.07 92.9023 129.031 92.7773 129.008C92.6562 128.98 92.5137 128.967 92.3496 128.967H91.4004V134H89.7129V127.66H92.3496C92.7637 127.66 93.1348 127.697 93.4629 127.771C93.791 127.842 94.0703 127.949 94.3008 128.094C94.5352 128.238 94.7129 128.422 94.834 128.645C94.959 128.863 95.0215 129.123 95.0215 129.424C95.0215 129.619 94.9766 129.803 94.8867 129.975C94.8008 130.146 94.6719 130.299 94.5 130.432C94.3281 130.564 94.1152 130.674 93.8613 130.76C93.6113 130.842 93.3223 130.893 92.9941 130.912L92.7598 131.352ZM92.7598 134H90.3574L90.9375 132.693H92.7598C92.9668 132.693 93.1367 132.668 93.2695 132.617C93.4023 132.566 93.5 132.492 93.5625 132.395C93.6289 132.293 93.6621 132.172 93.6621 132.031C93.6621 131.895 93.6328 131.775 93.5742 131.674C93.5156 131.572 93.4199 131.494 93.2871 131.439C93.1582 131.381 92.9824 131.352 92.7598 131.352H91.1836L91.1953 130.244H92.9883L93.3984 130.689C93.8438 130.717 94.2109 130.801 94.5 130.941C94.7891 131.082 95.002 131.262 95.1387 131.48C95.2793 131.695 95.3496 131.932 95.3496 132.189C95.3496 132.49 95.293 132.754 95.1797 132.98C95.0664 133.207 94.8984 133.396 94.6758 133.549C94.457 133.697 94.1875 133.811 93.8672 133.889C93.5469 133.963 93.1777 134 92.7598 134ZM96.1172 130.895V130.771C96.1172 130.307 96.1836 129.879 96.3164 129.488C96.4492 129.094 96.6426 128.752 96.8965 128.463C97.1504 128.174 97.4629 127.949 97.834 127.789C98.2051 127.625 98.6309 127.543 99.1113 127.543C99.5918 127.543 100.02 127.625 100.395 127.789C100.77 127.949 101.084 128.174 101.338 128.463C101.596 128.752 101.791 129.094 101.924 129.488C102.057 129.879 102.123 130.307 102.123 130.771V130.895C102.123 131.355 102.057 131.783 101.924 132.178C101.791 132.568 101.596 132.91 101.338 133.203C101.084 133.492 100.771 133.717 100.4 133.877C100.029 134.037 99.6035 134.117 99.123 134.117C98.6426 134.117 98.2148 134.037 97.8398 133.877C97.4688 133.717 97.1543 133.492 96.8965 133.203C96.6426 132.91 96.4492 132.568 96.3164 132.178C96.1836 131.783 96.1172 131.355 96.1172 130.895ZM97.8047 130.771V130.895C97.8047 131.16 97.8281 131.408 97.875 131.639C97.9219 131.869 97.9961 132.072 98.0977 132.248C98.2031 132.42 98.3398 132.555 98.5078 132.652C98.6758 132.75 98.8809 132.799 99.123 132.799C99.3574 132.799 99.5586 132.75 99.7266 132.652C99.8945 132.555 100.029 132.42 100.131 132.248C100.232 132.072 100.307 131.869 100.354 131.639C100.404 131.408 100.43 131.16 100.43 130.895V130.771C100.43 130.514 100.404 130.271 100.354 130.045C100.307 129.814 100.23 129.611 100.125 129.436C100.023 129.256 99.8887 129.115 99.7207 129.014C99.5527 128.912 99.3496 128.861 99.1113 128.861C98.873 128.861 98.6699 128.912 98.502 129.014C98.3379 129.115 98.2031 129.256 98.0977 129.436C97.9961 129.611 97.9219 129.814 97.875 130.045C97.8281 130.271 97.8047 130.514 97.8047 130.771ZM103.881 127.66H105.568L105.516 129.781C105.5 130.461 105.422 131.045 105.281 131.533C105.141 132.021 104.953 132.432 104.719 132.764C104.484 133.096 104.217 133.361 103.916 133.561C103.619 133.756 103.307 133.902 102.979 134H102.662L102.645 132.699L102.82 132.682C103.02 132.475 103.184 132.273 103.312 132.078C103.441 131.879 103.541 131.67 103.611 131.451C103.682 131.232 103.732 130.988 103.764 130.719C103.799 130.449 103.82 130.137 103.828 129.781L103.881 127.66ZM104.338 127.66H108.539V134H106.857V129.014H104.338V127.66ZM102.275 132.682H109.447V135.904H107.76V134H104.004V135.904H102.275V132.682Z" fill="#161616"/>
</svg>
