<svg width="187" height="187" viewBox="0 0 187 187" fill="none" xmlns="http://www.w3.org/2000/svg">
<rect width="187" height="187" rx="14.8856" fill="#F4F5F8"/>
<path d="M105.302 89.3896C104.824 89.7818 104.756 90.4884 105.149 90.9645C105.543 91.4407 106.253 91.509 106.731 91.1167C107.209 90.7245 107.277 90.0179 106.884 89.5418C106.49 89.0656 105.78 88.9973 105.302 89.3896ZM106.531 89.8313C106.764 90.1137 106.724 90.5327 106.44 90.7654C106.157 90.998 105.736 90.9575 105.502 90.6751C105.269 90.3927 105.309 89.9737 105.593 89.741C105.876 89.5083 106.297 89.5488 106.531 89.8313Z" fill="#161616"/>
<path d="M115.983 66.9079L116.916 65.5227L118.904 66.851L119.061 66.7769L121.779 68.6839L122.151 68.1344L123.249 68.8675L124.863 66.4705L123.775 65.7434L123.951 65.484L121.369 63.6939L121.385 63.1624L119.399 61.8361L120.043 60.8807L117.131 58.9347L116.309 60.1557L110.176 56.4297L95.9073 74.1332L81.6385 56.4297L75.5062 60.1557L74.6836 58.9347L71.7713 60.8807L72.4149 61.8361L70.4299 63.1624L70.4457 63.6939L67.8634 65.484L68.0395 65.7434L66.9513 66.4705L68.566 68.8675L69.6631 68.1344L70.0362 68.6839L72.7534 66.7769L72.9106 66.851L74.8985 65.5227L75.8317 66.9079L78.744 64.9618L78.0069 63.8677L80.6166 62.2086L93.0952 77.6223L90.8368 80.4243L90.1711 79.8783L89.337 79.1939C89.4829 78.8515 89.3938 78.44 89.0912 78.1918L88.6123 77.7989C88.2441 77.4968 87.6977 77.5494 87.3943 77.9161L85.505 80.2003C85.2016 80.567 85.2544 81.1112 85.6227 81.4134L86.1015 81.8062C86.3948 82.0468 86.8007 82.0617 87.1072 81.8729L87.9496 82.564L88.6052 83.1018L87.5267 84.408L86.87 83.8692L86.0359 83.1849C86.1818 82.8425 86.0927 82.431 85.7901 82.1827L85.3112 81.7899C84.943 81.4878 84.3966 81.5404 84.0932 81.9071L82.2039 84.1912C81.9006 84.558 81.9533 85.1022 82.3216 85.4043L82.8005 85.7972C83.0938 86.0377 83.4996 86.0526 83.8062 85.8638L84.6486 86.5549L85.3076 87.0956L85.2649 87.1473C84.5411 87.2701 83.8565 87.6413 83.3541 88.2486C83.1807 88.4582 83.0391 88.6837 82.9287 88.919C77.4326 93.8476 73.183 101.448 72.6609 102.403L70.5 102.774L68.7985 105.102L69.3576 105.553L69.0597 105.914L68.6876 105.608L67.6288 106.888L68.0009 107.194L67.0663 108.324C66.889 108.538 66.9199 108.856 67.1351 109.032L68.0802 109.808C68.2955 109.985 68.6147 109.953 68.7921 109.739L69.7266 108.61L70.0986 108.915L71.1574 107.635L70.7854 107.33L71.0945 106.956L71.3608 107.17L73.0684 104.84L73.9051 104.634L73.8624 105.491L71.8921 107.607L72.3415 107.981L72.0337 108.353L71.6615 108.048L70.6027 109.328L70.9748 109.633L70.0403 110.763C69.863 110.978 69.8939 111.296 70.1091 111.472L71.0542 112.248C71.2694 112.424 71.5887 112.394 71.766 112.179L72.7006 111.049L73.0726 111.354L74.1314 110.074L73.7594 109.769L74.0561 109.41L74.4216 109.715L76.3904 107.606L76.342 105.423C77.1799 104.729 83.8423 99.1138 87.6532 92.8219L87.6453 92.8171C87.8633 92.6614 88.0649 92.4758 88.2433 92.2601C88.5757 91.8582 88.7904 91.3981 88.8931 90.9211C89.8536 90.3728 89.9026 88.9002 89.8985 88.5177L95.9072 81.0958L101.916 88.5177C101.912 88.9002 101.961 90.3728 102.921 90.9211C103.024 91.3981 103.239 91.8582 103.571 92.2601C103.749 92.4758 103.951 92.6614 104.169 92.8171L104.161 92.8219C107.972 99.1138 114.635 104.729 115.473 105.423L115.424 107.606L117.393 109.715L117.758 109.41L118.055 109.769L117.683 110.074L118.742 111.354L119.114 111.049L120.049 112.179C120.226 112.394 120.545 112.424 120.76 112.248L121.705 111.472C121.92 111.296 121.952 110.978 121.774 110.763L120.839 109.633L121.212 109.328L120.153 108.048L119.781 108.353L119.473 107.981L119.922 107.607L117.952 105.491L117.909 104.634L118.746 104.84L120.453 107.17L120.72 106.956L121.029 107.33L120.657 107.635L121.716 108.915L122.087 108.61L123.022 109.739C123.2 109.953 123.519 109.985 123.734 109.808L124.679 109.032C124.894 108.856 124.925 108.538 124.748 108.324L123.813 107.194L124.186 106.888L123.126 105.608L122.755 105.914L122.456 105.553L123.016 105.102L121.314 102.774L119.153 102.403C118.631 101.448 114.382 93.8476 108.886 88.919C108.775 88.6836 108.634 88.4582 108.46 88.2486C107.958 87.6412 107.273 87.2701 106.549 87.1473L106.507 87.0956L107.166 86.5549L108.008 85.8638C108.315 86.0526 108.721 86.0377 109.014 85.7972L109.493 85.4043C109.861 85.1022 109.914 84.5579 109.61 84.1912L107.721 81.9071C107.418 81.5403 106.871 81.4877 106.503 81.7899L106.024 82.1827C105.722 82.431 105.632 82.8425 105.778 83.1849L104.944 83.8692L104.288 84.408L103.209 83.1018L103.865 82.564L104.707 81.8729C105.014 82.0617 105.42 82.0468 105.713 81.8062L106.192 81.4134C106.56 81.1112 106.613 80.567 106.309 80.2003L104.42 77.9161C104.117 77.5494 103.57 77.4967 103.202 77.7989L102.723 78.1918C102.421 78.44 102.331 78.8515 102.477 79.1939L101.643 79.8783L100.978 80.4243L98.7192 77.6223L111.198 62.2086L113.807 63.8677L113.07 64.9618L115.983 66.9079ZM124.229 66.5951L123.124 68.2359L122.415 67.7625L123.52 66.1218L124.229 66.5951ZM121.353 64.2374L123.32 65.6011L122.735 66.4625L121.316 65.4564L121.353 64.2374ZM122.479 66.8398L121.661 68.0444L119.536 66.5532L121.061 65.8342L122.479 66.8398ZM120.92 63.4004L120.86 65.4252L118.943 66.3289L117.176 65.1485L119.151 62.218L120.92 63.4004ZM70.4619 64.2374L70.4981 65.4565L69.0797 66.4626L68.4948 65.6011L70.4619 64.2374ZM68.6909 68.2358L67.5856 66.595L68.294 66.1217L69.3993 67.7624L68.6909 68.2358ZM70.1537 68.0444L69.3359 66.8398L70.7536 65.8342L72.2786 66.5531L70.1537 68.0444ZM72.8715 66.3289L70.9545 65.4253L70.8943 63.4004L72.6637 62.2181L74.6379 65.1486L72.8715 66.3289ZM78.1096 64.8374L75.9565 66.2762L72.4056 61.0052L74.5586 59.5665L78.1096 64.8374ZM86.9667 81.3995C86.8237 81.5725 86.5659 81.5973 86.3922 81.4548L85.9133 81.0619C85.7396 80.9194 85.7147 80.6627 85.8578 80.4897L87.7471 78.2056C87.8902 78.0325 88.1479 78.0078 88.3216 78.1503L88.8005 78.5431C88.9743 78.6856 88.9991 78.9423 88.8561 79.1153L86.9667 81.3995ZM87.8874 81.9231L87.4337 81.5509L89.0739 79.568L89.5276 79.9401L87.8874 81.9231ZM88.2403 82.2126L89.8804 80.2296L90.5473 80.7767L88.8965 82.7492L88.8956 82.7502L88.2403 82.2126ZM83.6657 85.3905C83.5226 85.5635 83.2649 85.5883 83.0912 85.4457L82.6123 85.0529C82.4386 84.9104 82.4137 84.6537 82.5568 84.4807L84.4461 82.1965C84.5892 82.0235 84.847 81.9987 85.0207 82.1412L85.4995 82.5341C85.6732 82.6766 85.6981 82.9333 85.555 83.1063L83.6657 85.3905ZM84.5864 85.9141L84.1327 85.5419L85.7729 83.559L86.2266 83.9311L84.5864 85.9141ZM84.9392 86.2036L86.5793 84.2206L87.2363 84.7596L85.5979 86.744L84.9392 86.2036ZM68.4393 109.45C68.4222 109.47 68.3916 109.473 68.3709 109.457L67.4258 108.681C67.4051 108.664 67.4021 108.634 67.4192 108.613L68.3537 107.483L69.3738 108.32L68.4393 109.45ZM70.0365 108.273L68.2723 106.826L68.7499 106.249L70.514 107.697L70.0365 108.273ZM70.4327 107.04L69.4126 106.203L69.7128 105.84L70.7395 106.669L70.4327 107.04ZM71.4132 111.89C71.3962 111.911 71.3656 111.913 71.3449 111.896L70.3998 111.121C70.3791 111.104 70.3761 111.073 70.3932 111.053L71.3277 109.923L72.3478 110.76L71.4132 111.89ZM73.0105 110.714L71.2463 109.266L71.7238 108.689L73.488 110.136L73.0105 110.714ZM73.4066 109.48L72.3865 108.643L72.6921 108.273L73.7056 109.118L73.4066 109.48ZM75.967 105.14L75.8801 105.211L75.9294 107.431L74.3824 109.088L72.5545 107.565L74.3108 105.679L74.3923 104.045L72.7973 104.437L71.2751 106.515L69.4236 105.02L70.7604 103.191L72.9585 102.814L73.0111 102.715C73.0535 102.636 77.1682 94.9724 82.6688 89.7785C82.5079 90.8402 82.894 91.9581 83.7849 92.6891C84.6752 93.4195 85.8499 93.5831 86.8649 93.2235C82.7953 99.5782 76.037 105.084 75.967 105.14ZM87.8906 91.9705C86.9404 93.1192 85.229 93.284 84.0755 92.3376C82.9221 91.3914 82.7567 89.6868 83.7069 88.5381C84.657 87.3894 86.3684 87.2246 87.5219 88.1709C88.6753 89.1173 88.8407 90.8217 87.8906 91.9705ZM89.4353 88.3646L89.4397 88.4513C89.4403 88.4652 89.4892 89.6395 88.9643 90.2713C88.9684 89.3558 88.5758 88.4457 87.8126 87.8195C87.2533 87.3607 86.5818 87.1261 85.9081 87.1036L87.8908 84.7066L87.8796 84.6975L88.9581 83.3913L88.9703 83.4014L91.1918 80.7156L91.1896 80.7138L93.3889 77.9851L95.6137 80.7331L89.4353 88.3646ZM121.421 111.053C121.438 111.073 121.435 111.104 121.415 111.121L120.47 111.896C120.449 111.913 120.418 111.911 120.401 111.89L119.467 110.76L120.487 109.923L121.421 111.053ZM120.09 108.689L120.568 109.266L118.804 110.714L118.326 110.136L120.09 108.689ZM118.408 109.48L118.109 109.118L119.123 108.273L119.428 108.643L118.408 109.48ZM124.395 108.613C124.412 108.634 124.409 108.664 124.389 108.681L123.444 109.457C123.423 109.473 123.392 109.47 123.375 109.45L122.441 108.32L123.461 107.483L124.395 108.613ZM123.064 106.249L123.542 106.826L121.778 108.273L121.301 107.697L123.064 106.249ZM121.382 107.04L121.075 106.669L122.102 105.84L122.402 106.203L121.382 107.04ZM109.146 89.7785C114.646 94.9724 118.761 102.636 118.803 102.715L118.856 102.814L121.054 103.191L122.391 105.02L120.54 106.515L119.017 104.437L117.422 104.045L117.504 105.679L119.26 107.565L117.432 109.088L115.885 107.431L115.934 105.211L115.847 105.14C115.778 105.084 109.019 99.5782 104.95 93.2235C105.965 93.5831 107.139 93.4195 108.03 92.6891C108.921 91.9581 109.307 90.8402 109.146 89.7785ZM108.108 88.5381C109.058 89.6868 108.892 91.3913 107.739 92.3376C106.586 93.284 104.874 93.1192 103.924 91.9705C102.974 90.8217 103.139 89.1173 104.293 88.1709C105.446 87.2247 107.158 87.3894 108.108 88.5381ZM106.315 82.5341L106.794 82.1413C106.968 81.9988 107.225 82.0236 107.369 82.1966L109.258 84.4807C109.401 84.6537 109.376 84.9105 109.202 85.053L108.723 85.4458C108.55 85.5883 108.292 85.5635 108.149 85.3905L106.26 83.1064C106.116 82.9334 106.141 82.6766 106.315 82.5341ZM106.042 83.559L107.682 85.5419L107.228 85.9141L105.588 83.9311L106.042 83.559ZM105.235 84.2206L106.875 86.2036L106.217 86.744L104.578 84.7597L105.235 84.2206ZM103.014 78.5431L103.493 78.1503C103.667 78.0078 103.924 78.0325 104.067 78.2056L105.957 80.4897C106.1 80.6627 106.075 80.9194 105.901 81.0619L105.422 81.4548C105.249 81.5973 104.991 81.5725 104.848 81.3995L102.958 79.1153C102.815 78.9423 102.84 78.6856 103.014 78.5431ZM102.741 79.568L104.381 81.5509L103.927 81.9231L102.287 79.9401L102.741 79.568ZM101.934 80.2296L103.574 82.2126L102.919 82.7502L102.918 82.7492L101.267 80.7767L101.934 80.2296ZM100.625 80.7138L100.623 80.7156L102.844 83.4014L102.857 83.3913L103.935 84.6975L103.924 84.7066L105.906 87.1036C105.233 87.1261 104.561 87.3607 104.002 87.8195C103.239 88.4457 102.846 89.3558 102.85 90.2713C102.325 89.6395 102.374 88.4652 102.375 88.4513L102.379 88.3646L96.201 80.7331L95.9073 80.3704L93.6819 77.6216L93.3882 77.2588L80.7154 61.6055L77.7645 63.4817L75.7711 60.5281L81.5335 57.0268L95.6142 74.4967L95.9073 74.8604L98.1327 77.6215L98.4257 77.985L100.625 80.7138ZM111.099 61.6055L98.4264 77.2588L96.2003 74.4968L110.281 57.0268L116.043 60.5282L114.05 63.4817L111.099 61.6055ZM117.256 59.5664L119.409 61.0051L115.858 66.2761L113.705 64.8374L117.256 59.5664Z" fill="#161616"/>
<path d="M116.717 103.369C117.169 102.998 117.233 102.331 116.861 101.88C116.489 101.431 115.819 101.366 115.368 101.737C114.916 102.107 114.851 102.775 115.223 103.225C115.595 103.674 116.265 103.739 116.717 103.369ZM115.658 102.088C115.915 101.877 116.296 101.914 116.509 102.17C116.72 102.426 116.684 102.806 116.426 103.017C116.169 103.228 115.788 103.191 115.576 102.935C115.364 102.679 115.401 102.299 115.658 102.088Z" fill="#161616"/>
<path d="M108.34 94.545C108.672 94.9466 109.27 95.0041 109.673 94.6733C110.077 94.3425 110.134 93.7467 109.802 93.3452C109.47 92.9436 108.872 92.886 108.469 93.2168C108.065 93.5476 108.008 94.1435 108.34 94.545ZM108.759 93.5682C108.968 93.3971 109.278 93.4268 109.449 93.6347C109.621 93.8425 109.591 94.1507 109.383 94.3219C109.174 94.4931 108.865 94.4633 108.693 94.2555C108.521 94.0477 108.551 93.7394 108.759 93.5682Z" fill="#161616"/>
<path d="M86.515 89.3896C86.0369 88.9973 85.3275 89.0656 84.9336 89.5418C84.5397 90.0179 84.6082 90.7245 85.0863 91.1167C85.5645 91.509 86.2739 91.4407 86.6678 90.9645C87.0617 90.4884 86.9931 89.7818 86.515 89.3896ZM86.315 90.675C86.0814 90.9574 85.6607 90.998 85.3771 90.7653C85.0935 90.5327 85.0529 90.1137 85.2865 89.8312C85.52 89.5488 85.9408 89.5083 86.2244 89.7409C86.5079 89.9736 86.5486 90.3927 86.315 90.675Z" fill="#161616"/>
<path d="M76.4503 101.737C75.9987 101.366 75.3285 101.431 74.9565 101.88C74.5845 102.331 74.6492 102.998 75.1009 103.369C75.5526 103.739 76.2227 103.674 76.5947 103.224C76.9667 102.775 76.902 102.107 76.4503 101.737ZM76.2419 102.935C76.0301 103.191 75.6486 103.228 75.3915 103.017C75.1344 102.806 75.0976 102.426 75.3094 102.17C75.5212 101.914 75.9026 101.877 76.1597 102.088C76.4168 102.299 76.4537 102.679 76.2419 102.935Z" fill="#161616"/>
<path d="M83.3482 93.2168C82.945 92.886 82.3467 92.9436 82.0146 93.3452C81.6824 93.7467 81.7402 94.3425 82.1434 94.6733C82.5466 95.0041 83.1449 94.9466 83.4771 94.545C83.8092 94.1435 83.7514 93.5476 83.3482 93.2168ZM83.1242 94.2555C82.9523 94.4633 82.6428 94.4931 82.4341 94.3219C82.2255 94.1507 82.1956 93.8425 82.3674 93.6347C82.5393 93.4268 82.8489 93.3971 83.0575 93.5682C83.2662 93.7394 83.2962 94.0477 83.1242 94.2555Z" fill="#161616"/>
<path d="M86.378 46.1752C87.4121 45.5379 87.9638 44.5038 87.8306 43.4142C87.719 42.5008 87.2757 41.8 86.5534 41.3904C85.7318 40.8783 84.6884 40.7318 83.17 40.9161C82.1762 41.0366 81.1248 41.2587 80.4262 41.4959L80.3271 41.5296L81.7476 53.1526L81.8601 53.1544C81.9084 53.1552 81.9633 53.1557 82.0252 53.1557C82.4553 53.1557 83.209 53.1318 84.2272 53.0084C86.1689 52.773 87.4692 52.2443 88.205 51.3895C88.804 50.6506 89.0492 49.7965 88.9336 48.8509C88.7349 47.2263 87.4962 46.4157 86.378 46.1752ZM82.2359 42.5398C82.5327 42.4495 82.9331 42.3735 83.4285 42.3134C85.0407 42.1178 85.9301 42.6128 86.0734 43.7843C86.1372 44.3059 85.9782 44.7787 85.6139 45.1516C85.2277 45.5467 84.6353 45.8024 83.9008 45.8915L82.6639 46.0415L82.2359 42.5398ZM86.4352 50.8129C85.9866 51.1824 85.312 51.4308 84.4846 51.5309C83.9738 51.5928 83.6075 51.6219 83.3451 51.6177L82.8336 47.4321L83.9497 47.2967C84.8151 47.1918 86.8533 47.1533 87.0859 49.0574C87.1758 49.7927 86.9569 50.3834 86.4352 50.8129Z" fill="#161616"/>
<path d="M95.0534 52.267L96.8428 52.2685L96.8516 41.8681L100.437 41.8711L100.438 40.3316L91.4954 40.3242L91.4941 41.8636L95.0621 41.8666L95.0534 52.267Z" fill="#161616"/>
<path d="M104.466 47.1819C104.783 45.7309 105.099 44.1901 105.344 42.9023C105.457 43.9854 105.637 45.2282 105.909 46.8092L106.936 52.6889L108.251 52.8939L111.22 47.5337C111.932 46.254 112.541 45.0912 113.073 43.9995C112.876 45.3439 112.709 46.9717 112.571 48.3203L112.055 53.5564L113.772 53.8239L114.887 41.9123L112.769 41.5828L109.785 46.9242C109.044 48.2925 108.516 49.3428 108.108 50.2652C108.008 49.2436 107.843 48.0861 107.583 46.5814L106.465 40.6011L104.348 40.2715L101.67 51.9392L103.353 52.2014L104.466 47.1819Z" fill="#161616"/>
<path d="M96.4788 33.8379H95.3848V35.995H96.4788V33.8379Z" fill="#161616"/>
<path d="M94.8551 33.8477L93.7617 33.8857L93.8373 36.0415L94.9306 36.0034L94.8551 33.8477Z" fill="#161616"/>
<path d="M93.231 33.9102L92.1396 33.9862L92.2908 36.1381L93.3822 36.0621L93.231 33.9102Z" fill="#161616"/>
<path d="M91.6065 34.0371L90.5186 34.151L90.7449 36.2962L91.8329 36.1823L91.6065 34.0371Z" fill="#161616"/>
<path d="M89.9936 34.2129L88.9102 34.3646L89.2117 36.5007L90.2951 36.349L89.9936 34.2129Z" fill="#161616"/>
<path d="M88.382 34.4492L87.3047 34.6384L87.6807 36.7627L88.7581 36.5735L88.382 34.4492Z" fill="#161616"/>
<path d="M86.781 34.7383L85.7109 34.9648L86.1612 37.0746L87.2313 36.8481L86.781 34.7383Z" fill="#161616"/>
<path d="M85.1944 35.0859L84.1328 35.3495L84.6568 37.4425L85.7183 37.1789L85.1944 35.0859Z" fill="#161616"/>
<path d="M83.6201 35.4863L82.5684 35.7866L83.1653 37.8602L84.217 37.5599L83.6201 35.4863Z" fill="#161616"/>
<path d="M82.06 35.9414L81.0195 36.2781L81.6887 38.3297L82.7292 37.993L82.06 35.9414Z" fill="#161616"/>
<path d="M80.5153 36.4492L79.4873 36.8218L80.228 38.8488L81.2561 38.4762L80.5153 36.4492Z" fill="#161616"/>
<path d="M78.9909 37.0117L77.9766 37.4199L78.7879 39.4199L79.8023 39.0118L78.9909 37.0117Z" fill="#161616"/>
<path d="M77.4857 37.6289L76.4863 38.072L77.3672 40.0425L78.3666 39.5994L77.4857 37.6289Z" fill="#161616"/>
<path d="M76.0057 38.293L75.0225 38.7706L75.9719 40.7094L76.9553 40.2318L76.0057 38.293Z" fill="#161616"/>
<path d="M74.5469 39.0117L73.5811 39.5233L74.5979 41.4277L75.5638 40.9162L74.5469 39.0117Z" fill="#161616"/>
<path d="M73.1154 39.7812L72.168 40.326L73.2509 42.1941L74.1983 41.6493L73.1154 39.7812Z" fill="#161616"/>
<path d="M71.7109 40.5977L70.7832 41.175L71.931 43.0042L72.8586 42.4269L71.7109 40.5977Z" fill="#161616"/>
<path d="M70.3386 41.4648L69.4316 42.0741L70.6428 43.8623L71.5498 43.2531L70.3386 41.4648Z" fill="#161616"/>
<path d="M68.9964 42.377L68.1113 43.0174L69.3844 44.7625L70.2694 44.122L68.9964 42.377Z" fill="#161616"/>
<path d="M67.6863 43.3359L66.8242 44.0068L68.1578 45.7066L69.0198 45.0358L67.6863 43.3359Z" fill="#161616"/>
<path d="M66.4103 44.3398L65.5723 45.0402L66.9645 46.6926L67.8025 45.9921L66.4103 44.3398Z" fill="#161616"/>
<path d="M65.1694 45.3887L64.3564 46.1176L65.8057 47.7206L66.6186 46.9915L65.1694 45.3887Z" fill="#161616"/>
<path d="M63.9686 46.4785L63.1816 47.2355L64.6863 48.787L65.4732 48.0301L63.9686 46.4785Z" fill="#161616"/>
<path d="M62.8059 47.6133L62.0459 48.397L63.6038 49.8955L64.3638 49.1118L62.8059 47.6133Z" fill="#161616"/>
<path d="M61.6822 48.7832L60.9502 49.5928L62.5597 51.0361L63.2917 50.2265L61.6822 48.7832Z" fill="#161616"/>
<path d="M60.6017 49.9922L59.8984 50.8268L61.5575 52.2133L62.2608 51.3787L60.6017 49.9922Z" fill="#161616"/>
<path d="M59.5642 51.2402L58.8906 52.0988L60.5973 53.4269L61.2709 52.5684L59.5642 51.2402Z" fill="#161616"/>
<path d="M58.5698 52.5215L57.9268 53.4029L59.6789 54.6709L60.322 53.7894L58.5698 52.5215Z" fill="#161616"/>
<path d="M57.6206 53.8359L57.0088 54.7392L58.8043 55.9454L59.4161 55.0421L57.6206 53.8359Z" fill="#161616"/>
<path d="M56.7193 55.1836L56.1396 56.1076L57.9763 57.2506L58.556 56.3267L56.7193 55.1836Z" fill="#161616"/>
<path d="M55.8654 56.5625L55.3184 57.506L57.194 58.5846L57.741 57.6411L55.8654 56.5625Z" fill="#161616"/>
<path d="M55.0605 57.9688L54.5469 58.9307L56.4591 59.9435L56.9727 58.9815L55.0605 57.9688Z" fill="#161616"/>
<path d="M54.3077 59.4023L53.8281 60.3817L55.7748 61.3273L56.2544 60.348L54.3077 59.4023Z" fill="#161616"/>
<path d="M53.6002 60.8613L53.1553 61.8566L55.1338 62.7339L55.5787 61.7386L53.6002 60.8613Z" fill="#161616"/>
<path d="M52.9508 62.3457L52.541 63.3559L54.5492 64.164L54.9591 63.1537L52.9508 62.3457Z" fill="#161616"/>
<path d="M52.3497 63.8496L51.9756 64.8735L54.0109 65.6112L54.385 64.5873L52.3497 63.8496Z" fill="#161616"/>
<path d="M51.8029 65.375L51.4648 66.4113L53.5248 67.0778L53.8629 66.0415L51.8029 65.375Z" fill="#161616"/>
<path d="M51.3083 66.916L51.0068 67.9634L53.0889 68.5579L53.3904 67.5106L51.3083 66.916Z" fill="#161616"/>
<path d="M50.8682 68.4766L50.6035 69.5337L52.7051 70.0556L52.9697 68.9983L50.8682 68.4766Z" fill="#161616"/>
<path d="M50.4833 70.0508L50.2559 71.1165L52.3743 71.5649L52.6018 70.4992L50.4833 70.0508Z" fill="#161616"/>
<path d="M50.1548 71.6348L49.9648 72.7078L52.0978 73.0822L52.2877 72.0093L50.1548 71.6348Z" fill="#161616"/>
<path d="M49.8837 73.2344L49.7314 74.3134L51.8763 74.6136L52.0286 73.5347L49.8837 73.2344Z" fill="#161616"/>
<path d="M49.6641 74.8359L49.5498 75.9195L51.7038 76.1449L51.8181 75.0614L49.6641 74.8359Z" fill="#161616"/>
<path d="M49.506 76.4512L49.4297 77.5381L51.5904 77.6887L51.6667 76.6017L49.506 76.4512Z" fill="#161616"/>
<path d="M49.3995 78.0645L49.3613 79.1534L51.5259 79.2286L51.5641 78.1397L49.3995 78.0645Z" fill="#161616"/>
<path d="M51.5194 79.6836H49.3535V80.7732H51.5194V79.6836Z" fill="#161616"/>
<path d="M51.5259 81.2285L49.3613 81.3038L49.3995 82.3928L51.5641 82.3174L51.5259 81.2285Z" fill="#161616"/>
<path d="M51.5904 82.7734L49.4297 82.924L49.506 84.011L51.6667 83.8604L51.5904 82.7734Z" fill="#161616"/>
<path d="M51.7028 84.3086L49.5488 84.534L49.6632 85.6176L51.8171 85.3922L51.7028 84.3086Z" fill="#161616"/>
<path d="M51.8763 85.8477L49.7314 86.1479L49.8837 87.2269L52.0286 86.9266L51.8763 85.8477Z" fill="#161616"/>
<path d="M52.1007 87.373L49.9678 87.7478L50.1578 88.8207L52.2908 88.4461L52.1007 87.373Z" fill="#161616"/>
<path d="M52.3743 88.8906L50.2559 89.3391L50.4833 90.4048L52.6017 89.9563L52.3743 88.8906Z" fill="#161616"/>
<path d="M52.7051 90.4023L50.6035 90.9242L50.8682 91.9813L52.9697 91.4595L52.7051 90.4023Z" fill="#161616"/>
<path d="M53.0879 91.9004L51.0059 92.4949L51.3074 93.5423L53.3894 92.9478L53.0879 91.9004Z" fill="#161616"/>
<path d="M53.5229 93.3828L51.4629 94.0493L51.8009 95.0856L53.8609 94.4191L53.5229 93.3828Z" fill="#161616"/>
<path d="M54.0089 94.8457L51.9736 95.5835L52.3478 96.6073L54.3831 95.8696L54.0089 94.8457Z" fill="#161616"/>
<path d="M54.5472 96.2949L52.5391 97.1031L52.9489 98.1132L54.9571 97.3054L54.5472 96.2949Z" fill="#161616"/>
<path d="M55.1328 97.7188L53.1543 98.5962L53.5992 99.5913L55.5778 98.7139L55.1328 97.7188Z" fill="#161616"/>
<path d="M55.7758 99.1289L53.8291 100.075L54.3087 101.054L56.2554 100.108L55.7758 99.1289Z" fill="#161616"/>
<path d="M56.4621 100.51L54.5498 101.522L55.0634 102.484L56.9757 101.472L56.4621 100.51Z" fill="#161616"/>
<path d="M57.195 101.871L55.3193 102.949L55.8663 103.893L57.742 102.815L57.195 101.871Z" fill="#161616"/>
<path d="M57.9753 103.203L56.1387 104.346L56.7184 105.27L58.5551 104.127L57.9753 103.203Z" fill="#161616"/>
<path d="M58.8053 104.51L57.0098 105.716L57.6216 106.619L59.4171 105.413L58.8053 104.51Z" fill="#161616"/>
<path d="M59.6799 105.787L57.9277 107.055L58.5708 107.936L60.323 106.668L59.6799 105.787Z" fill="#161616"/>
<path d="M60.5993 107.031L58.8926 108.359L59.5661 109.218L61.2729 107.89L60.5993 107.031Z" fill="#161616"/>
<path d="M61.5575 108.24L59.8984 109.626L60.6017 110.461L62.2607 109.075L61.5575 108.24Z" fill="#161616"/>
<path d="M62.5577 109.418L60.9482 110.862L61.6803 111.671L63.2897 110.228L62.5577 109.418Z" fill="#161616"/>
<path d="M63.6068 110.561L62.0488 112.059L62.8089 112.843L64.3667 111.344L63.6068 110.561Z" fill="#161616"/>
<path d="M64.6834 111.674L63.1787 113.225L63.9656 113.982L65.4702 112.43L64.6834 111.674Z" fill="#161616"/>
<path d="M65.8027 112.734L64.3535 114.337L65.1664 115.066L66.6157 113.463L65.8027 112.734Z" fill="#161616"/>
<path d="M66.9615 113.766L65.5693 115.418L66.4073 116.118L67.7995 114.466L66.9615 113.766Z" fill="#161616"/>
<path d="M68.1578 114.754L66.8242 116.454L67.6863 117.125L69.0199 115.425L68.1578 114.754Z" fill="#161616"/>
<path d="M69.3825 115.695L68.1094 117.44L68.9944 118.081L70.2675 116.336L69.3825 115.695Z" fill="#161616"/>
<path d="M70.6409 116.598L69.4297 118.386L70.3366 118.995L71.5478 117.207L70.6409 116.598Z" fill="#161616"/>
<path d="M71.928 117.451L70.7803 119.28L71.708 119.858L72.8557 118.029L71.928 117.451Z" fill="#161616"/>
<path d="M73.25 118.264L72.167 120.132L73.1145 120.677L74.1974 118.809L73.25 118.264Z" fill="#161616"/>
<path d="M74.595 119.033L73.5781 120.938L74.5441 121.449L75.561 119.545L74.595 119.033Z" fill="#161616"/>
<path d="M75.973 119.75L75.0234 121.689L76.0067 122.167L76.9563 120.228L75.973 119.75Z" fill="#161616"/>
<path d="M77.3623 120.414L76.4814 122.385L77.4808 122.828L78.3617 120.857L77.3623 120.414Z" fill="#161616"/>
<path d="M78.7879 121.035L77.9766 123.035L78.991 123.444L79.8023 121.443L78.7879 121.035Z" fill="#161616"/>
<path d="M80.2281 121.605L79.4873 123.633L80.5154 124.005L81.2561 121.978L80.2281 121.605Z" fill="#161616"/>
<path d="M81.6907 122.125L81.0215 124.177L82.0619 124.513L82.7312 122.462L81.6907 122.125Z" fill="#161616"/>
<path d="M83.1672 122.594L82.5703 124.667L83.6219 124.968L84.2189 122.894L83.1672 122.594Z" fill="#161616"/>
<path d="M84.6568 123.014L84.1328 125.107L85.1944 125.37L85.7183 123.277L84.6568 123.014Z" fill="#161616"/>
<path d="M86.1593 123.383L85.709 125.493L86.779 125.719L87.2293 123.609L86.1593 123.383Z" fill="#161616"/>
<path d="M87.6829 123.701L87.3066 125.825L88.384 126.015L88.7602 123.89L87.6829 123.701Z" fill="#161616"/>
<path d="M89.2136 123.957L88.9121 126.093L89.9955 126.245L90.297 124.109L89.2136 123.957Z" fill="#161616"/>
<path d="M90.7419 124.162L90.5156 126.308L91.6036 126.422L91.8299 124.276L90.7419 124.162Z" fill="#161616"/>
<path d="M92.2947 124.32L92.1436 126.473L93.235 126.548L93.3861 124.396L92.2947 124.32Z" fill="#161616"/>
<path d="M93.8373 124.416L93.7617 126.571L94.8551 126.61L94.9307 124.454L93.8373 124.416Z" fill="#161616"/>
<path d="M96.4788 124.463H95.3848V126.62H96.4788V124.463Z" fill="#161616"/>
<path d="M98.0299 124.416L96.9365 124.454L97.0121 126.61L98.1055 126.572L98.0299 124.416Z" fill="#161616"/>
<path d="M99.5816 124.316L98.4902 124.393L98.6414 126.545L99.7328 126.469L99.5816 124.316Z" fill="#161616"/>
<path d="M101.115 124.162L100.027 124.276L100.254 126.421L101.342 126.307L101.115 124.162Z" fill="#161616"/>
<path d="M102.66 123.957L101.576 124.109L101.878 126.245L102.961 126.093L102.66 123.957Z" fill="#161616"/>
<path d="M104.179 123.697L103.102 123.887L103.478 126.011L104.555 125.822L104.179 123.697Z" fill="#161616"/>
<path d="M105.699 123.379L104.629 123.605L105.079 125.715L106.149 125.488L105.699 123.379Z" fill="#161616"/>
<path d="M107.206 123.018L106.145 123.281L106.668 125.374L107.73 125.111L107.206 123.018Z" fill="#161616"/>
<path d="M108.7 122.604L107.648 122.904L108.245 124.978L109.297 124.677L108.7 122.604Z" fill="#161616"/>
<path d="M110.178 122.135L109.138 122.471L109.807 124.522L110.847 124.186L110.178 122.135Z" fill="#161616"/>
<path d="M111.635 121.611L110.607 121.984L111.348 124.011L112.376 123.638L111.635 121.611Z" fill="#161616"/>
<path d="M113.078 121.039L112.063 121.448L112.875 123.448L113.889 123.039L113.078 121.039Z" fill="#161616"/>
<path d="M114.491 120.414L113.492 120.858L114.373 122.828L115.372 122.385L114.491 120.414Z" fill="#161616"/>
<path d="M115.897 119.746L114.914 120.223L115.864 122.162L116.846 121.684L115.897 119.746Z" fill="#161616"/>
<path d="M117.266 119.023L116.3 119.535L117.317 121.439L118.283 120.928L117.266 119.023Z" fill="#161616"/>
<path d="M118.612 118.262L117.664 118.806L118.747 120.674L119.694 120.13L118.612 118.262Z" fill="#161616"/>
<path d="M119.927 117.449L118.999 118.026L120.146 119.856L121.074 119.278L119.927 117.449Z" fill="#161616"/>
<path d="M121.22 116.592L120.312 117.201L121.524 118.99L122.43 118.38L121.22 116.592Z" fill="#161616"/>
<path d="M122.481 115.691L121.596 116.331L122.869 118.076L123.754 117.436L122.481 115.691Z" fill="#161616"/>
<path d="M123.71 114.746L122.848 115.417L124.181 117.117L125.043 116.446L123.71 114.746Z" fill="#161616"/>
<path d="M124.898 113.76L124.061 114.46L125.453 116.112L126.291 115.412L124.898 113.76Z" fill="#161616"/>
<path d="M126.051 112.734L125.238 113.463L126.687 115.067L127.5 114.338L126.051 112.734Z" fill="#161616"/>
<path d="M127.18 111.662L126.393 112.419L127.897 113.971L128.684 113.214L127.18 111.662Z" fill="#161616"/>
<path d="M128.262 110.57L127.502 111.354L129.06 112.853L129.82 112.069L128.262 110.57Z" fill="#161616"/>
<path d="M129.299 109.424L128.567 110.233L130.177 111.676L130.909 110.867L129.299 109.424Z" fill="#161616"/>
<path d="M130.305 108.25L129.602 109.084L131.26 110.471L131.964 109.636L130.305 108.25Z" fill="#161616"/>
<path d="M131.271 107.035L130.598 107.894L132.304 109.222L132.977 108.363L131.271 107.035Z" fill="#161616"/>
<path d="M132.186 105.791L131.543 106.672L133.295 107.94L133.938 107.059L132.186 105.791Z" fill="#161616"/>
<path d="M133.057 104.516L132.445 105.419L134.241 106.625L134.853 105.722L133.057 104.516Z" fill="#161616"/>
<path d="M133.883 103.209L133.303 104.133L135.139 105.276L135.719 104.352L133.883 103.209Z" fill="#161616"/>
<path d="M134.667 101.875L134.12 102.819L135.996 103.897L136.542 102.953L134.667 101.875Z" fill="#161616"/>
<path d="M135.404 100.52L134.891 101.481L136.803 102.494L137.316 101.532L135.404 100.52Z" fill="#161616"/>
<path d="M136.095 99.1309L135.615 100.11L137.562 101.056L138.042 100.077L136.095 99.1309Z" fill="#161616"/>
<path d="M136.723 97.7246L136.278 98.7197L138.256 99.5971L138.702 98.6013L136.723 97.7246Z" fill="#161616"/>
<path d="M137.318 96.291L136.908 97.3012L138.916 98.109L139.326 97.099L137.318 96.291Z" fill="#161616"/>
<path d="M137.854 94.8438L137.479 95.8676L139.515 96.6053L139.889 95.5814L137.854 94.8438Z" fill="#161616"/>
<path d="M138.344 93.375L138.006 94.4113L140.066 95.0778L140.404 94.0415L138.344 93.375Z" fill="#161616"/>
<path d="M138.776 91.8906L138.475 92.938L140.557 93.5325L140.858 92.4852L138.776 91.8906Z" fill="#161616"/>
<path d="M139.159 90.3984L138.894 91.4556L140.995 91.9774L141.26 90.9202L139.159 90.3984Z" fill="#161616"/>
<path d="M139.487 88.8965L139.26 89.9622L141.378 90.4106L141.606 89.3449L139.487 88.8965Z" fill="#161616"/>
<path d="M139.762 87.3711L139.572 88.4441L141.705 88.8186L141.895 87.7456L139.762 87.3711Z" fill="#161616"/>
<path d="M139.994 85.8438L139.842 86.9227L141.986 87.223L142.139 86.144L139.994 85.8438Z" fill="#161616"/>
<path d="M140.157 84.3105L140.043 85.3941L142.197 85.6195L142.311 84.536L140.157 84.3105Z" fill="#161616"/>
<path d="M140.282 82.7695L140.206 83.8565L142.366 84.0071L142.443 82.9201L140.282 82.7695Z" fill="#161616"/>
<path d="M140.339 81.2266L140.301 82.3155L142.465 82.3907L142.504 81.3018L140.339 81.2266Z" fill="#161616"/>
<path d="M142.511 79.6836H140.346V80.7732H142.511V79.6836Z" fill="#161616"/>
<path d="M142.466 78.0664L140.301 78.1417L140.339 79.2306L142.504 79.1553L142.466 78.0664Z" fill="#161616"/>
<path d="M142.366 76.4473L140.206 76.5978L140.282 77.6847L142.443 77.5342L142.366 76.4473Z" fill="#161616"/>
<path d="M142.197 74.8398L140.043 75.0652L140.157 76.1488L142.311 75.9234L142.197 74.8398Z" fill="#161616"/>
<path d="M141.986 73.2324L139.842 73.5327L139.994 74.6117L142.139 74.3114L141.986 73.2324Z" fill="#161616"/>
<path d="M141.707 71.6406L139.574 72.0151L139.764 73.0881L141.897 72.7136L141.707 71.6406Z" fill="#161616"/>
<path d="M141.375 70.0508L139.257 70.4992L139.484 71.5649L141.603 71.1165L141.375 70.0508Z" fill="#161616"/>
<path d="M140.996 68.4785L138.895 69.0003L139.16 70.0575L141.261 69.5357L140.996 68.4785Z" fill="#161616"/>
<path d="M140.56 66.9238L138.478 67.5183L138.779 68.5657L140.861 67.9712L140.56 66.9238Z" fill="#161616"/>
<path d="M140.067 65.377L138.007 66.0435L138.344 67.0798L140.405 66.4132L140.067 65.377Z" fill="#161616"/>
<path d="M139.516 63.8516L137.481 64.5892L137.856 65.6131L139.891 64.8754L139.516 63.8516Z" fill="#161616"/>
<path d="M138.916 62.3457L136.908 63.1538L137.318 64.164L139.326 63.3559L138.916 62.3457Z" fill="#161616"/>
<path d="M138.257 60.8633L136.279 61.7406L136.724 62.7359L138.703 61.8586L138.257 60.8633Z" fill="#161616"/>
<path d="M137.56 59.4004L135.613 60.346L136.093 61.3253L138.039 60.3796L137.56 59.4004Z" fill="#161616"/>
<path d="M136.8 57.9648L134.888 58.9776L135.401 59.9395L137.313 58.9268L136.8 57.9648Z" fill="#161616"/>
<path d="M135.996 56.5605L134.12 57.6391L134.667 58.5827L136.543 57.5041L135.996 56.5605Z" fill="#161616"/>
<path d="M135.14 55.1836L133.304 56.3267L133.884 57.2506L135.72 56.1076L135.14 55.1836Z" fill="#161616"/>
<path d="M134.241 53.834L132.445 55.0402L133.057 55.9434L134.853 54.7372L134.241 53.834Z" fill="#161616"/>
<path d="M133.294 52.5195L131.542 53.7874L132.185 54.6689L133.937 53.401L133.294 52.5195Z" fill="#161616"/>
<path d="M132.301 51.2363L130.595 52.5645L131.268 53.423L132.975 52.0949L132.301 51.2363Z" fill="#161616"/>
<path d="M131.259 49.9902L129.601 51.3768L130.304 52.2114L131.963 50.8248L131.259 49.9902Z" fill="#161616"/>
<path d="M130.178 48.7852L128.569 50.2284L129.301 51.0381L130.911 49.5948L130.178 48.7852Z" fill="#161616"/>
<path d="M129.057 47.6074L127.499 49.106L128.259 49.8896L129.817 48.3912L129.057 47.6074Z" fill="#161616"/>
<path d="M127.899 46.4844L126.395 48.036L127.181 48.7929L128.686 47.2413L127.899 46.4844Z" fill="#161616"/>
<path d="M126.691 45.3926L125.242 46.9955L126.055 47.7245L127.504 46.1216L126.691 45.3926Z" fill="#161616"/>
<path d="M125.455 44.3438L124.062 45.996L124.9 46.6965L126.293 45.0441L125.455 44.3438Z" fill="#161616"/>
<path d="M124.181 43.3379L122.848 45.0377L123.71 45.7085L125.044 44.0087L124.181 43.3379Z" fill="#161616"/>
<path d="M122.869 42.3789L121.596 44.1239L122.481 44.7644L123.754 43.0194L122.869 42.3789Z" fill="#161616"/>
<path d="M121.526 41.4668L120.315 43.255L121.223 43.8643L122.433 42.0761L121.526 41.4668Z" fill="#161616"/>
<path d="M120.151 40.6016L119.003 42.4308L119.931 43.0081L121.078 41.1789L120.151 40.6016Z" fill="#161616"/>
<path d="M118.749 39.7832L117.666 41.6512L118.614 42.196L119.696 40.328L118.749 39.7832Z" fill="#161616"/>
<path d="M117.32 39.0156L116.303 40.9201L117.269 41.4317L118.285 39.5272L117.32 39.0156Z" fill="#161616"/>
<path d="M115.863 38.2949L114.913 40.2337L115.897 40.7113L116.846 38.7726L115.863 38.2949Z" fill="#161616"/>
<path d="M114.376 37.6309L113.495 39.6013L114.495 40.0444L115.376 38.074L114.376 37.6309Z" fill="#161616"/>
<path d="M112.874 37.0117L112.062 39.0118L113.077 39.4199L113.888 37.4199L112.874 37.0117Z" fill="#161616"/>
<path d="M111.348 36.4492L110.607 38.4762L111.635 38.8489L112.376 36.8219L111.348 36.4492Z" fill="#161616"/>
<path d="M109.805 35.9375L109.136 37.9891L110.176 38.3258L110.846 36.2742L109.805 35.9375Z" fill="#161616"/>
<path d="M108.244 35.4824L107.647 37.556L108.699 37.8563L109.296 35.7827L108.244 35.4824Z" fill="#161616"/>
<path d="M106.668 35.084L106.145 37.177L107.206 37.4406L107.73 35.3475L106.668 35.084Z" fill="#161616"/>
<path d="M105.081 34.7422L104.631 36.852L105.701 37.0785L106.151 34.9687L105.081 34.7422Z" fill="#161616"/>
<path d="M103.48 34.4492L103.104 36.5735L104.181 36.7626L104.557 34.6384L103.48 34.4492Z" fill="#161616"/>
<path d="M101.876 34.2129L101.574 36.349L102.658 36.5007L102.959 34.3646L101.876 34.2129Z" fill="#161616"/>
<path d="M100.256 34.0371L100.029 36.1823L101.117 36.2962L101.344 34.151L100.256 34.0371Z" fill="#161616"/>
<path d="M98.6385 33.9121L98.4873 36.064L99.5787 36.1401L99.7299 33.9882L98.6385 33.9121Z" fill="#161616"/>
<path d="M97.0111 33.8477L96.9355 36.0034L98.0289 36.0415L98.1045 33.8857L97.0111 33.8477Z" fill="#161616"/>
<path d="M58.3209 81.7268C59.1516 81.5925 59.7157 80.813 59.5809 79.9857C59.4461 79.1583 58.6634 78.5965 57.8327 78.7308C57.002 78.865 56.4378 79.6445 56.5727 80.4719C56.7074 81.2992 57.4902 81.861 58.3209 81.7268Z" fill="#161616"/>
<path d="M133.554 81.7249C134.385 81.5906 134.949 80.8111 134.815 79.9837C134.679 79.1564 133.897 78.5946 133.066 78.7288C132.236 78.8631 131.671 79.6426 131.806 80.47C131.941 81.2973 132.724 81.8592 133.554 81.7249Z" fill="#161616"/>
<path d="M85.5644 114.012C85.7898 114.012 85.9726 113.83 85.9726 113.606C85.9726 113.381 85.7898 113.199 85.5644 113.199C85.339 113.199 85.1562 113.381 85.1562 113.606C85.1562 113.83 85.339 114.012 85.5644 114.012Z" fill="#161616"/>
<path d="M104.651 114.012C104.877 114.012 105.06 113.83 105.06 113.606C105.06 113.381 104.877 113.199 104.651 113.199C104.426 113.199 104.243 113.381 104.243 113.606C104.243 113.83 104.426 114.012 104.651 114.012Z" fill="#161616"/>
<path d="M89.1534 114.787L88.7422 115.185V115.698H91.2444V114.992H89.9556C90.6398 114.334 91.1605 113.773 91.1605 113.071C91.1605 112.499 90.7874 111.922 89.9539 111.922C89.5575 111.922 89.1776 112.058 88.884 112.305L88.7898 112.384L89.0757 113.015L89.2407 112.878C89.3529 112.784 89.5826 112.628 89.8596 112.628C90.2048 112.628 90.3727 112.792 90.3727 113.127C90.3681 113.565 90.0099 113.975 89.1534 114.787Z" fill="#161616"/>
<path d="M93.8432 111.922C93.0242 111.922 92.4951 112.678 92.4951 113.851C92.5061 115.026 93.0005 115.755 93.7855 115.755C94.6423 115.755 95.1336 115.044 95.1336 113.802C95.1336 112.625 94.6512 111.922 93.8432 111.922ZM93.8117 115.076C93.4905 115.076 93.2829 114.596 93.2829 113.854C93.2829 113.094 93.4925 112.602 93.8169 112.602C94.277 112.602 94.3457 113.367 94.3457 113.823C94.3457 114.2 94.2936 115.076 93.8117 115.076Z" fill="#161616"/>
<path d="M97.7562 115.698V111.979H97.1588L96.2656 112.455L96.4376 113.13L96.9841 112.836V115.698H97.7562Z" fill="#161616"/>
<path d="M101.449 113.071C101.449 112.499 101.076 111.922 100.243 111.922C99.8465 111.922 99.4666 112.058 99.173 112.305L99.0788 112.384L99.3647 113.015L99.5297 112.878C99.6419 112.784 99.8716 112.628 100.149 112.628C100.494 112.628 100.662 112.792 100.662 113.127C100.657 113.565 100.299 113.975 99.4425 114.787L99.0312 115.185V115.698H101.533V114.992H100.245C100.929 114.334 101.449 113.773 101.449 113.071Z" fill="#161616"/>
<path d="M46.9141 148.93H44.0078L43.9922 147.414H46.4844C46.9115 147.414 47.2682 147.354 47.5547 147.234C47.8411 147.115 48.0573 146.94 48.2031 146.711C48.3542 146.482 48.4297 146.203 48.4297 145.875C48.4297 145.51 48.3594 145.214 48.2188 144.984C48.0833 144.755 47.8698 144.589 47.5781 144.484C47.2865 144.375 46.9167 144.32 46.4688 144.32H44.7031V154H42.5547V142.625H46.4688C47.1146 142.625 47.6901 142.688 48.1953 142.812C48.7057 142.932 49.138 143.12 49.4922 143.375C49.8464 143.63 50.1146 143.951 50.2969 144.336C50.4844 144.721 50.5781 145.18 50.5781 145.711C50.5781 146.18 50.4688 146.612 50.25 147.008C50.0365 147.398 49.7057 147.716 49.2578 147.961C48.8151 148.206 48.2526 148.346 47.5703 148.383L46.9141 148.93ZM46.8203 154H43.375L44.2734 152.312H46.8203C47.2474 152.312 47.599 152.242 47.875 152.102C48.1562 151.961 48.3646 151.768 48.5 151.523C48.6406 151.273 48.7109 150.987 48.7109 150.664C48.7109 150.31 48.6484 150.003 48.5234 149.742C48.4036 149.482 48.2109 149.281 47.9453 149.141C47.6849 149 47.3411 148.93 46.9141 148.93H44.6797L44.6953 147.414H47.5391L48.0312 148C48.6875 148.005 49.2214 148.135 49.6328 148.391C50.0495 148.646 50.3568 148.974 50.5547 149.375C50.7526 149.776 50.8516 150.208 50.8516 150.672C50.8516 151.401 50.6927 152.013 50.375 152.508C50.0625 153.003 49.6042 153.375 49 153.625C48.401 153.875 47.6745 154 46.8203 154ZM56.6562 145.547V154H54.5859V145.547H56.6562ZM59.4062 145.547V147.156H51.8828V145.547H59.4062ZM59.9688 149.859V149.695C59.9688 149.076 60.0573 148.505 60.2344 147.984C60.4115 147.458 60.6693 147.003 61.0078 146.617C61.3464 146.232 61.7604 145.932 62.25 145.719C62.7396 145.5 63.2969 145.391 63.9219 145.391C64.5573 145.391 65.1198 145.5 65.6094 145.719C66.1042 145.932 66.5208 146.232 66.8594 146.617C67.1979 147.003 67.4557 147.458 67.6328 147.984C67.8099 148.505 67.8984 149.076 67.8984 149.695V149.859C67.8984 150.474 67.8099 151.044 67.6328 151.57C67.4557 152.091 67.1979 152.547 66.8594 152.938C66.5208 153.323 66.1068 153.622 65.6172 153.836C65.1276 154.049 64.5677 154.156 63.9375 154.156C63.3125 154.156 62.7526 154.049 62.2578 153.836C61.763 153.622 61.3464 153.323 61.0078 152.938C60.6693 152.547 60.4115 152.091 60.2344 151.57C60.0573 151.044 59.9688 150.474 59.9688 149.859ZM62.0312 149.695V149.859C62.0312 150.229 62.0677 150.576 62.1406 150.898C62.2135 151.221 62.3255 151.505 62.4766 151.75C62.6276 151.995 62.8229 152.188 63.0625 152.328C63.3073 152.464 63.599 152.531 63.9375 152.531C64.2708 152.531 64.5573 152.464 64.7969 152.328C65.0365 152.188 65.2318 151.995 65.3828 151.75C65.5391 151.505 65.6536 151.221 65.7266 150.898C65.7995 150.576 65.8359 150.229 65.8359 149.859V149.695C65.8359 149.331 65.7995 148.99 65.7266 148.672C65.6536 148.349 65.5391 148.065 65.3828 147.82C65.2318 147.57 65.0339 147.375 64.7891 147.234C64.5495 147.089 64.2604 147.016 63.9219 147.016C63.5885 147.016 63.3021 147.089 63.0625 147.234C62.8229 147.375 62.6276 147.57 62.4766 147.82C62.3255 148.065 62.2135 148.349 62.1406 148.672C62.0677 148.99 62.0312 149.331 62.0312 149.695ZM71.4609 147.172V157.25H69.3906V145.547H71.3047L71.4609 147.172ZM76.8906 149.688V149.852C76.8906 150.466 76.8177 151.036 76.6719 151.562C76.5312 152.083 76.3229 152.539 76.0469 152.93C75.7708 153.315 75.4271 153.617 75.0156 153.836C74.6094 154.049 74.1406 154.156 73.6094 154.156C73.0885 154.156 72.6354 154.057 72.25 153.859C71.8646 153.656 71.5391 153.37 71.2734 153C71.0078 152.63 70.7943 152.201 70.6328 151.711C70.4766 151.216 70.3594 150.677 70.2812 150.094V149.57C70.3594 148.951 70.4766 148.388 70.6328 147.883C70.7943 147.372 71.0078 146.932 71.2734 146.562C71.5391 146.188 71.862 145.898 72.2422 145.695C72.6276 145.492 73.0781 145.391 73.5938 145.391C74.1302 145.391 74.6016 145.492 75.0078 145.695C75.4193 145.898 75.7656 146.19 76.0469 146.57C76.3281 146.951 76.5391 147.404 76.6797 147.93C76.8203 148.456 76.8906 149.042 76.8906 149.688ZM74.8203 149.852V149.688C74.8203 149.312 74.7865 148.966 74.7188 148.648C74.651 148.326 74.5469 148.044 74.4062 147.805C74.2656 147.56 74.0833 147.37 73.8594 147.234C73.6354 147.099 73.3646 147.031 73.0469 147.031C72.7292 147.031 72.4557 147.083 72.2266 147.188C71.9974 147.292 71.8099 147.44 71.6641 147.633C71.5182 147.826 71.4036 148.055 71.3203 148.32C71.2422 148.581 71.1901 148.87 71.1641 149.188V150.484C71.2109 150.87 71.3021 151.216 71.4375 151.523C71.5729 151.831 71.7708 152.076 72.0312 152.258C72.2969 152.44 72.6406 152.531 73.0625 152.531C73.3802 152.531 73.651 152.461 73.875 152.32C74.099 152.18 74.2812 151.987 74.4219 151.742C74.5625 151.492 74.6641 151.206 74.7266 150.883C74.7891 150.56 74.8203 150.216 74.8203 149.852ZM83.4375 142.625V154H81.2969V142.625H83.4375ZM86.9688 142.625V144.32H77.8047V142.625H86.9688ZM91.3047 154.156C90.6641 154.156 90.0885 154.052 89.5781 153.844C89.0677 153.635 88.6328 153.346 88.2734 152.977C87.9193 152.602 87.6458 152.167 87.4531 151.672C87.2656 151.172 87.1719 150.635 87.1719 150.062V149.75C87.1719 149.099 87.2656 148.508 87.4531 147.977C87.6406 147.44 87.9062 146.979 88.25 146.594C88.5938 146.208 89.0052 145.911 89.4844 145.703C89.9635 145.495 90.4922 145.391 91.0703 145.391C91.6693 145.391 92.1979 145.492 92.6562 145.695C93.1146 145.893 93.4974 146.174 93.8047 146.539C94.112 146.904 94.3438 147.341 94.5 147.852C94.6562 148.357 94.7344 148.917 94.7344 149.531V150.398H88.1094V148.977H92.7031V148.82C92.6927 148.492 92.6302 148.193 92.5156 147.922C92.401 147.646 92.224 147.427 91.9844 147.266C91.7448 147.099 91.4349 147.016 91.0547 147.016C90.7474 147.016 90.4792 147.083 90.25 147.219C90.026 147.349 89.8385 147.536 89.6875 147.781C89.5417 148.021 89.4323 148.307 89.3594 148.641C89.2865 148.974 89.25 149.344 89.25 149.75V150.062C89.25 150.417 89.2969 150.745 89.3906 151.047C89.4896 151.349 89.6328 151.612 89.8203 151.836C90.013 152.055 90.2422 152.227 90.5078 152.352C90.7786 152.471 91.0859 152.531 91.4297 152.531C91.862 152.531 92.2526 152.448 92.6016 152.281C92.9557 152.109 93.263 151.857 93.5234 151.523L94.5625 152.602C94.3854 152.862 94.1458 153.112 93.8438 153.352C93.5469 153.591 93.1875 153.786 92.7656 153.938C92.3438 154.083 91.8568 154.156 91.3047 154.156ZM97.7344 145.547L99.2422 148.234L100.773 145.547H103.016L100.531 149.688L103.117 154H100.875L99.2578 151.18L97.6328 154H95.3906L97.9688 149.688L95.5 145.547H97.7344ZM105.305 142.625H107.164L110.273 151.188L113.375 142.625H115.242L111.016 154H109.523L105.305 142.625ZM104.367 142.625H106.188L106.516 150.492V154H104.367V142.625ZM114.352 142.625H116.18V154H114.031V150.492L114.352 142.625ZM120.297 151.055L123.375 145.547H125.445V154H123.375V148.484L120.297 154H118.227V145.547H120.297V151.055ZM129.523 145.547V154H127.461V145.547H129.523ZM135.031 145.547L131.305 150.734H129.109L128.852 148.844H130.375L132.43 145.547H135.031ZM132.555 154L130.242 150.375L131.961 149.297L135.297 154H132.555ZM139.586 152.531C139.878 152.531 140.138 152.474 140.367 152.359C140.596 152.245 140.779 152.083 140.914 151.875C141.055 151.667 141.13 151.424 141.141 151.148H143.086C143.076 151.721 142.914 152.234 142.602 152.688C142.289 153.141 141.872 153.5 141.352 153.766C140.836 154.026 140.258 154.156 139.617 154.156C138.966 154.156 138.398 154.047 137.914 153.828C137.43 153.609 137.026 153.305 136.703 152.914C136.385 152.523 136.146 152.07 135.984 151.555C135.828 151.039 135.75 150.487 135.75 149.898V149.648C135.75 149.06 135.828 148.508 135.984 147.992C136.146 147.477 136.385 147.023 136.703 146.633C137.026 146.242 137.43 145.938 137.914 145.719C138.398 145.5 138.964 145.391 139.609 145.391C140.292 145.391 140.891 145.523 141.406 145.789C141.927 146.055 142.333 146.43 142.625 146.914C142.922 147.398 143.076 147.969 143.086 148.625H141.141C141.13 148.323 141.062 148.052 140.938 147.812C140.812 147.573 140.635 147.38 140.406 147.234C140.177 147.089 139.898 147.016 139.57 147.016C139.221 147.016 138.93 147.089 138.695 147.234C138.466 147.38 138.286 147.581 138.156 147.836C138.031 148.086 137.943 148.367 137.891 148.68C137.844 148.987 137.82 149.31 137.82 149.648V149.898C137.82 150.242 137.844 150.57 137.891 150.883C137.943 151.195 138.031 151.477 138.156 151.727C138.286 151.971 138.466 152.167 138.695 152.312C138.93 152.458 139.227 152.531 139.586 152.531Z" fill="#161616"/>
</svg>
